<?xml version="1.0" standalone="no"?>
<!DOCTYPE svg PUBLIC "-//W3C//DTD SVG 1.1//EN" "http://www.w3.org/Graphics/SVG/1.1/DTD/svg11.dtd" >
<svg xmlns="http://www.w3.org/2000/svg" xmlns:xlink="http://www.w3.org/1999/xlink" version="1.1">
<metadata></metadata>
<defs>
<font id="magistralblackcregular" horiz-adv-x="977" >
<font-face units-per-em="2048" ascent="1661" descent="-387" />
<missing-glyph horiz-adv-x="467" />
<glyph horiz-adv-x="0" />
<glyph horiz-adv-x="682" />
<glyph unicode=" "  horiz-adv-x="467" />
<glyph unicode="&#x09;" horiz-adv-x="467" />
<glyph unicode="&#xa0;" horiz-adv-x="467" />
<glyph unicode="!" horiz-adv-x="657" d="M132 0v366h394v-366h-394zM517 484h-377l-40 921h458z" />
<glyph unicode="&#x22;" horiz-adv-x="1049" d="M124 753l-24 652h373l-23 -652h-326zM600 753l-24 652h374l-25 -652h-325z" />
<glyph unicode="#" horiz-adv-x="1812" d="M203 0l150 373h-293l70 181h295l129 315h-295l74 181h293l144 355h222l-143 -355h388l142 355h220l-140 -355h293l-72 -181h-295l-127 -315h293l-72 -181h-293l-150 -373h-224l151 373h-387l-153 -373h-220zM1036 554l128 315h-389l-129 -315h390z" />
<glyph unicode="$" horiz-adv-x="1549" d="M138 0v349h731q71 0 92 11q31 15 31 42q0 56 -88 77l-513 121q-149 35 -226 160q-65 102 -65 266q0 172 74 265q20 24 42.5 42.5t42.5 30.5t47 20.5t44.5 12.5t47 6t42.5 2h42h200v144h193v-144h498v-350h-674q-68 0 -95 -3q-25 -4 -35.5 -19t-10.5 -31q0 -54 108 -79 l470 -106q166 -38 237 -120q46 -56 61 -135.5t15 -184.5q0 -93 -16 -163.5t-66 -123.5q-15 -16 -32 -29t-37 -22.5t-35.5 -16.5t-40 -11t-37.5 -6.5t-40 -3.5t-36 -1h-37.5h-31.5h-165v-144h-193v144h-544z" />
<glyph unicode="%" horiz-adv-x="1641" d="M311 0l815 1405h209l-816 -1405h-208zM423 1417q54 0 89.5 -4.5t76.5 -22t73 -49.5q22 -22 37.5 -48t24 -50.5t13.5 -55t6.5 -55t1.5 -56.5q0 -84 -16 -148.5t-67 -115.5q-46 -46 -101.5 -60.5t-137.5 -14.5q-83 0 -138.5 14t-102.5 61q-50 51 -66 115.5t-16 148.5 q0 86 16 150t66 115q25 24 52.5 40t59.5 23.5t60.5 10t68.5 2.5zM277 1076q0 -94 26 -132q33 -44 120 -44q86 0 119 44q26 39 26 132q0 101 -26 134q-33 44 -119 44q-87 0 -120 -44q-26 -32 -26 -134zM1218 668q86 0 140.5 -13t100.5 -61q50 -52 66.5 -117t16.5 -148 q0 -85 -16 -149.5t-67 -114.5q-47 -47 -102.5 -62t-138.5 -15q-53 0 -89 4.5t-76.5 22t-73.5 50.5q-50 50 -66 114.5t-16 149.5q0 83 16 148t66 117q47 48 100.5 61t138.5 13zM1074 329q0 -96 26 -134q33 -44 118 -44q87 0 121 44q26 40 26 134q0 97 -26 133 q-12 16 -26.5 26t-34 13.5t-29 4t-31.5 0.5q-20 0 -29.5 -0.5t-29 -4t-34 -13.5t-25.5 -26q-26 -34 -26 -133z" />
<glyph unicode="&#x26;" horiz-adv-x="1673" d="M1471 558v-152q0 -46 -3 -84t-12.5 -84t-30.5 -86t-52 -70q-31 -28 -70.5 -45.5t-88 -25t-86 -9.5t-92.5 -2h-528q-38 0 -60.5 1t-64.5 7t-72.5 17.5t-67 35.5t-65.5 58q-25 28 -41 58.5t-24 64.5t-10.5 66t-2.5 75q0 73 10.5 129.5t44.5 103.5q61 87 168 91v3 q-89 15 -147 81q-29 33 -45.5 74t-21.5 76.5t-5 81.5q0 107 25 181t66 115q30 30 70 49t90 26.5t84.5 9t88.5 1.5h897v-350h-695q-63 0 -90.5 -2.5t-43.5 -10.5q-46 -22 -46 -83q0 -67 54 -86q23 -10 122 -10h928v-305h-183zM915 349q23 0 33.5 0.5t27.5 4.5t26 14 q15 15 15 63v127h-351h-13.5h-15.5t-14.5 -1.5t-16 -4.5t-15 -9t-17.5 -15q-28 -31 -28 -74q0 -27 10 -51t28 -35q29 -19 104 -19h227z" />
<glyph unicode="'" horiz-adv-x="577" d="M126 753l-26 652h377l-25 -652h-326z" />
<glyph unicode="(" horiz-adv-x="824" d="M381 775v-457q0 -47 2 -78.5t13.5 -78t32.5 -81.5q41 -65 132.5 -109.5t202.5 -39.5v-260q-94 -6 -179 9t-150 46t-112.5 65.5t-87.5 76.5q-50 53 -75.5 104.5t-40.5 125.5q-19 95 -19 247v404v26v27v24t0.5 25.5t1.5 23.5t2 25.5t2.5 24t3.5 27t4.5 25.5t6.5 28 q29 131 114 223q37 38 86 72t115 64t151.5 45.5t176.5 11.5v-261q-110 7 -201 -37t-134 -110q-21 -34 -32.5 -81t-13.5 -79t-2 -78z" />
<glyph unicode=")" horiz-adv-x="824" d="M444 775q0 45 -2.5 77.5t-14 79.5t-32.5 81q-43 66 -134 110t-201 37v261q62 3 121.5 -3.5t110 -20.5t95.5 -32.5t83 -42t67 -46.5t53 -48q85 -92 115 -223q4 -20 7.5 -38t5.5 -39.5t3.5 -33.5t2 -37t0.5 -32.5v-38.5v-37v-404q0 -55 -0.5 -84t-4.5 -75t-12 -88 q-16 -74 -41.5 -125.5t-75.5 -104.5q-40 -42 -87.5 -76.5t-113 -65.5t-150.5 -46t-179 -9v260q111 -5 202.5 39.5t132.5 109.5q21 35 32.5 81t14 78.5t2.5 78.5v457z" />
<glyph unicode="*" horiz-adv-x="982" d="M395 1431h193v-280l241 140l94 -163l-243 -138l241 -141l-96 -167l-237 137v-275h-193v275l-236 -137l-97 167l241 141l-243 138l95 163l240 -140v280z" />
<glyph unicode="+" horiz-adv-x="1418" d="M847 24h-273v472h-474v261h474v471h273v-471h472v-261h-472v-472z" />
<glyph unicode="," horiz-adv-x="716" d="M277 -307l-277 165l307 513l309 -185z" />
<glyph unicode="-" d="M60 379v318h857v-318h-857z" />
<glyph unicode="." horiz-adv-x="597" d="M498 0h-398v362h398v-362z" />
<glyph unicode="/" horiz-adv-x="1038" d="M180 -341h-200l879 1827h200z" />
<glyph unicode="0" horiz-adv-x="1372" d="M60 554v287q0 36 1 63t4.5 77.5t13.5 92t25.5 89t42.5 88t62 70.5q28 24 63 42t78 28.5t79 17t89 9t83 3t85 0.5t85 -0.5t83 -3t89 -9t79.5 -17t78.5 -28.5t63 -42q35 -30 62 -70.5t42 -88t25 -89t13.5 -92t4.5 -77t1 -63.5v-287q0 -400 -158 -506q-56 -38 -163 -51 t-305 -13t-304.5 13t-162.5 51q-159 107 -159 506zM686 345q102 0 139 44q19 22 26.5 66t7.5 129v269q0 34 -1.5 57t-11 54.5t-27.5 50.5q-42 44 -133 44q-90 0 -132 -44q-18 -19 -27.5 -50.5t-11 -54.5t-1.5 -57v-269q0 -85 7.5 -129t26.5 -66q37 -44 138 -44z" />
<glyph unicode="1" horiz-adv-x="808" d="M255 0v939q0 71 -18 93q-19 23 -66 23h-171v350h484q98 0 158 -53q20 -17 34.5 -42.5t23.5 -60t9 -73.5v-1176h-454z" />
<glyph unicode="2" horiz-adv-x="1358" d="M259 0q-54 0 -94 22t-62 59.5t-32.5 82t-10.5 95.5q0 18 1 35.5t4.5 45.5t12 53.5t21 52t34 49t49.5 37.5l593 313q70 36 70 120q0 49 -24 73q-8 8 -18.5 13.5t-18 8t-22.5 4t-19.5 2t-22 0l-17.5 -0.5h-561v340h846q62 0 127 -24.5t105 -68.5q32 -35 50.5 -87.5t23 -98 t4.5 -103.5q0 -82 -9.5 -145.5t-26 -107t-45 -77.5t-58.5 -55.5t-73 -43.5l-425 -211q-21 -10 -21 -19t15 -9h617v-355h-1013z" />
<glyph unicode="3" horiz-adv-x="1382" d="M60 0v349h556q96 0 132.5 3t58.5 14q31 15 40.5 36t9.5 54q0 16 -1.5 27.5t-6.5 25t-15.5 24t-26.5 17.5q-6 2 -12.5 4t-14 3t-13 1.5t-15.5 1t-15 0.5h-17h-17h-609v309h584h7q26 0 41 1t36.5 8t36.5 22q26 26 26 73q0 25 -5 42t-23 33q-14 12 -37 17.5t-34.5 6 t-43.5 0.5h-606v333h861q33 0 55.5 -1t57 -7t60 -17.5t54.5 -33.5t52 -53q67 -89 67 -249q0 -71 -13 -130t-52 -104q-18 -21 -43 -37.5t-56 -27.5t-64 -15v-6q47 0 97.5 -15.5t84.5 -44.5q30 -25 48.5 -57.5t26 -72t9.5 -66t2 -64.5q0 -112 -20.5 -183.5t-86.5 -132.5 q-58 -52 -120.5 -70t-143.5 -18h-892z" />
<glyph unicode="4" horiz-adv-x="1542" d="M841 0v191h-630q-44 0 -78 12.5t-62 53.5q-6 5 -16 24.5t-22.5 73.5t-12.5 118q0 60 8 106t25 78.5t33.5 53.5t41.5 44l640 576q45 39 108 64.5t164 25.5q140 0 205 -65q23 -23 34.5 -51t13.5 -46.5t2 -52.5v-11v-635h208v-369h-208v-191h-454zM841 560v351q0 8 -8 8 q-4 0 -8.5 -3t-9.5 -8.5t-8 -7.5l-340 -302q-13 -14 -13 -20q0 -4 2 -8t8 -7t15 -3h362z" />
<glyph unicode="5" horiz-adv-x="1368" d="M80 0v349h615q31 0 48.5 1t42 9.5t37.5 25.5q20 25 20 79q0 43 -22 68q-13 14 -33.5 21.5t-36 9t-39.5 1.5h-363h-50.5t-47.5 3t-57.5 11t-44.5 22q-21 14 -36.5 32.5t-25 41t-15.5 42.5t-8.5 45.5t-3 42t-0.5 39.5v337q0 103 53 161q64 64 186 64h973v-342h-672 q-54 0 -72 -19q-14 -15 -14 -52v-23q0 -22 8 -42t20 -30q22 -20 74 -20h374q35 0 62.5 -3.5t60.5 -14t64.5 -33.5t59.5 -58q21 -26 35 -56t21 -54t10.5 -62.5t4 -59t0.5 -65.5q0 -38 -0.5 -57t-2.5 -62t-8.5 -72.5t-17 -67t-28.5 -68t-43 -54.5q-30 -30 -70 -49.5 t-86.5 -27.5t-83 -10.5t-85.5 -2.5h-803z" />
<glyph unicode="6" horiz-adv-x="1368" d="M514 869h434q35 0 61.5 -1.5t63 -8t69.5 -21t60 -37.5q36 -31 59.5 -74t32.5 -94t11.5 -84.5t2.5 -77.5q0 -221 -58 -324q-81 -147 -313 -147h-527q-144 0 -238 80q-25 21 -44 46t-31 52t-20 52.5t-11.5 56t-4.5 53.5t-1 53v641q0 37 3.5 68.5t14.5 72.5t37 79t65 69 q107 82 284 82h773v-350h-588q-85 0 -111 -19q-24 -20 -24 -73v-94zM514 560v-110q0 -21 1.5 -34t9.5 -29t23 -25q23 -13 70 -13h125q46 0 69 20q31 24 31 77q0 16 -3 32.5t-9.5 32.5t-16.5 25q-4 5 -10.5 8.5t-11 6t-13 4.5t-12.5 3t-14.5 1.5t-13 0.5h-14h-13.5h-198z" />
<glyph unicode="7" horiz-adv-x="1209" d="M36 0l673 1005q19 33 19 39q0 4 -4 8t-16 7.5t-30 3.5h-698v342h1066q30 0 55.5 -4.5t43.5 -14t32 -21t23 -27t15.5 -30.5t9.5 -33t4 -32.5t1 -32.5q0 -118 -58 -208l-634 -1002h-502z" />
<glyph unicode="8" horiz-adv-x="1380" d="M301 716v4q-69 8 -123 57q-28 26 -46.5 56t-26.5 63.5t-10.5 58.5t-2.5 58q0 213 90 299q28 27 70 46t78.5 28t89.5 13.5t81 5t73 0.5h14h205h14q45 0 73 -0.5t80.5 -5t89.5 -13.5t79 -28t70 -46q90 -86 90 -299q0 -33 -2.5 -58t-10.5 -58.5t-26.5 -63.5t-47.5 -56 q-53 -49 -122 -57v-4q43 -6 85.5 -22.5t69.5 -38.5q24 -21 41 -50t25.5 -55t13.5 -61t5.5 -56t0.5 -52q0 -80 -12 -139.5t-49 -109.5q-20 -27 -45.5 -48t-49.5 -35t-58.5 -23.5t-60.5 -14.5t-67.5 -7.5t-67.5 -3t-72 -0.5h-297q-46 0 -72.5 0.5t-67.5 3t-67 7.5t-60.5 14.5 t-59 23.5t-49.5 35t-45 48q-37 50 -49 109.5t-12 139.5q0 39 2 67t9.5 69.5t26.5 76.5t49 61q27 22 69 38.5t85 22.5zM651 863h79q55 0 75 22q18 19 18 67q0 18 -0.5 29t-7 27.5t-18.5 25.5q-13 9 -39.5 15t-47.5 6h-40q-20 0 -47 -6t-39 -15t-18.5 -25.5t-7 -27.5t-0.5 -29 q0 -48 18 -67q20 -22 75 -22zM646 349h89q17 0 35 3t35 11t26 18q11 13 17.5 36.5t6.5 44.5q0 53 -36 78q-4 3 -9 5.5t-11 4.5l-10.5 3.5t-11.5 2t-10.5 1t-11 1t-10 0.5h-10.5h-9h-71h-9.5h-10t-10 -0.5t-11.5 -1t-10.5 -1t-11 -2l-10.5 -3.5t-11 -4.5t-9 -5.5 q-36 -25 -36 -78q0 -54 24 -81q13 -16 41 -24t55 -8z" />
<glyph unicode="9" horiz-adv-x="1360" d="M104 0v349h639q54 0 80 20q24 21 24 66v91h-481q-145 0 -228 96q-23 27 -39 62.5t-23.5 64t-11.5 74t-4 67v69.5v54t2 51t5.5 53.5t10.5 49t17.5 51t26.5 45.5t37 45q31 32 67 52.5t75 29.5t70 12t71 3h441q43 0 76 -2t76 -11t76.5 -24t67.5 -43t60 -67q35 -52 48 -108.5 t13 -128.5v-555q0 -46 -0.5 -67t-4 -64.5t-14 -80.5t-27.5 -72q-18 -37 -42.5 -66t-49 -48t-56 -32.5t-56 -20t-57.5 -10.5t-52 -4.5t-46 -0.5h-791zM847 839v140q0 32 -18 53q-23 23 -63 23h-113q-56 0 -87 -21q-40 -28 -40 -90q0 -20 5.5 -38t13 -30t17.5 -19 q23 -18 97 -18h188z" />
<glyph unicode=":" horiz-adv-x="597" d="M498 703h-398v360h398v-360zM498 0h-398v362h398v-362z" />
<glyph unicode=";" horiz-adv-x="720" d="M277 -307l-277 165l307 513l309 -185zM620 714h-394v349h394v-349z" />
<glyph unicode="&#x3c;" horiz-adv-x="1422" d="M100 973l1223 622v-245l-769 -377l769 -377v-245z" />
<glyph unicode="=" horiz-adv-x="1420" d="M1321 303h-1221v261h1221v-261zM1321 712h-1221v261h1221v-261z" />
<glyph unicode="&#x3e;" horiz-adv-x="1422" d="M1323 973l-1223 -622v245l769 377l-769 377v245z" />
<glyph unicode="?" horiz-adv-x="1023" d="M209 0v366h393v-366h-393zM602 484h-393v70q0 83 40 141q9 14 25 28.5t35 29t51 36.5l61 42q58 39 75.5 67t17.5 75q0 5 -0.5 8.5t-0.5 8.5t-1 9t-2 8.5t-3 8.5t-4.5 8t-6 7.5t-8 6.5t-9.5 6q-23 11 -100 11h-359v350h629q25 0 39 -0.5t41.5 -3t47.5 -9t44.5 -17 t46 -28.5t39.5 -43q56 -78 56 -232q0 -133 -42 -213t-132 -141l-101 -67q-15 -11 -37 -34.5t-31 -40.5q-18 -37 -18 -59v-33z" />
<glyph unicode="@" horiz-adv-x="1976" d="M1369 -379h-609q-55 0 -103.5 4t-111 18.5t-114.5 39t-105.5 68t-94.5 102.5q-52 77 -82 186t-39.5 230.5t-9.5 300.5q0 106 3 173t13 147t33 144.5t60 119.5q32 49 73.5 88.5t84 65.5t93.5 45.5t95.5 30t98 16.5t93.5 7.5t88 1.5h353q454 0 606 -295q28 -53 45.5 -115.5 t25 -132.5t10 -125.5t2.5 -131.5q0 -163 -13.5 -261.5t-45.5 -169.5q-43 -92 -113.5 -134t-174.5 -42q-47 0 -91 10t-83 30.5t-67.5 55.5t-39.5 80q-99 -176 -328 -176q-254 0 -353 172q-64 116 -64 332q0 220 56 335q48 97 143 152t214 55h278h16h17.5t17 -0.5t18.5 -1.5 t17 -2.5t18.5 -3.5t16.5 -5t16.5 -7.5t14.5 -10t14 -12.5q17 -17 25 -42t9.5 -42t1.5 -48q-1 -6 -1 -10v-476q0 -82 37 -125t95 -43q39 0 64.5 16.5t45.5 49.5q24 44 31 108.5t7 202.5v18q0 64 -1.5 102t-7 100.5t-21.5 115.5t-41 98q-23 42 -52.5 74t-63 52t-67 33.5 t-73.5 20t-72.5 8.5t-74.5 2h-369q-30 0 -52 -0.5t-53.5 -2.5t-56.5 -6t-56 -10.5t-56 -16.5t-52.5 -24t-50 -33t-44 -43t-39 -55t-30.5 -68q-42 -116 -42 -440q0 -127 9.5 -229t17.5 -140t19 -74q16 -51 42 -92t55 -69t66.5 -48.5t72 -31.5t77.5 -17.5t76.5 -8.5t73.5 -2 h559v-188zM1151 747q0 29 -19 48q-18 15 -64 15h-78q-37 0 -69.5 -7.5t-56.5 -21.5t-41 -32q-59 -66 -59 -234q0 -139 25 -196q37 -80 134 -80q95 0 155 66q73 77 73 209v233z" />
<glyph unicode="A" horiz-adv-x="1561" d="M-60 0l520 1250q18 44 38.5 72t56.5 52t91.5 35.5t134.5 11.5q38 0 66 -2t61.5 -7.5t59 -17t51 -30t46 -47t37.5 -67.5l520 -1250h-478l-110 289h-506l-111 -289h-477zM762 965l-126 -354h289l-126 354q-12 31 -18 31t-19 -31z" />
<glyph unicode="B" horiz-adv-x="1555" d="M100 222v956q0 101 49 157q26 30 70 50t88 20h763q45 0 80 -3t78.5 -11.5t80.5 -28.5t66 -50q88 -90 88 -301q0 -69 -13 -119.5t-57 -98.5q-60 -65 -141 -71v-8q99 -8 167 -72q27 -26 43.5 -55.5t23 -65.5t8 -61.5t1.5 -66.5v-58t-4.5 -57t-12.5 -64t-25 -57.5t-42 -58.5 q-22 -24 -45 -41.5t-50.5 -27.5t-49.5 -16.5t-56 -9t-54.5 -3t-59.5 -0.5h-734h-10q-31 0 -50 1t-48.5 6.5t-54.5 20.5t-46 39q-25 29 -39 71.5t-14 83.5zM554 865h337q26 0 41 1.5t35.5 10.5t32.5 27q13 24 13 63q0 36 -21 61q-13 13 -34 19.5t-33.5 7t-35.5 0.5h-259 q-14 0 -21.5 -0.5t-17.5 -4t-19 -10.5q-9 -8 -13 -19.5t-4.5 -18.5t-0.5 -23v-114zM554 560v-106q0 -65 16 -85q19 -20 85 -20h240q98 0 120 28q7 8 13 22t10 30.5t4 30.5q0 35 -19 59q-14 19 -36.5 28.5t-37.5 11t-42 1.5h-353z" />
<glyph unicode="C" horiz-adv-x="1293" d="M1291 0h-623q-177 0 -287.5 36t-191.5 136q-66 82 -97.5 200t-31.5 312q0 127 9.5 218t37 175t75.5 145q27 34 60 62t66 46.5t72 32.5t74 22t76 12.5t73.5 6t70.5 1.5h594v-350h-375h-11h-60t-53 -2t-51 -6t-43 -12t-41 -19.5t-32.5 -29t-29.5 -40.5q-46 -81 -46 -253 q0 -164 34 -233q12 -24 30 -41.5t36 -29t46.5 -19.5t49 -12t57.5 -6.5t58.5 -2.5h64.5h389v-349z" />
<glyph unicode="D" horiz-adv-x="1561" d="M100 209v943q0 36 2 62t13.5 61.5t31.5 59.5q27 31 72 50.5t97 19.5h640q122 0 235 -43.5t184 -126.5q70 -83 98 -207.5t28 -317.5q0 -202 -26.5 -330.5t-81.5 -203.5q-58 -77 -161.5 -126.5t-241.5 -49.5h-659q-110 0 -166 52q-15 13 -26.5 29.5t-20.5 36.5t-13.5 43 t-4.5 48zM554 973v-517v-9v-9v-8.5t0.5 -9t1 -8t1.5 -8.5t2.5 -8t3.5 -8.5t5 -7t6 -7.5q25 -24 75 -24h61q91 0 158 16.5t105 63.5q63 72 63 285q0 210 -94 293q-30 26 -71.5 40t-82 17.5t-102.5 3.5h-33q-47 0 -71 -16q-28 -22 -28 -79z" />
<glyph unicode="E" horiz-adv-x="1386" d="M1347 0h-1012q-54 0 -94 9t-76 39q-24 19 -38 39.5t-19.5 45.5t-6.5 42t-1 49v964q0 104 61 160q61 57 170 57h1010v-342h-695q-47 0 -70 -19q-22 -18 -22 -69v-106h767v-305h-767v-152q0 -36 20 -52q11 -9 28 -13.5t27 -5t32 -0.5h686v-341z" />
<glyph unicode="F" horiz-adv-x="1396" d="M554 0h-454v1168q0 114 65 177q63 60 182 60h1046v-342h-753q-44 0 -64 -19q-22 -23 -22 -75v-98h612v-317h-612v-554z" />
<glyph unicode="G" horiz-adv-x="1524" d="M1465 743v-532q0 -61 -21.5 -101.5t-47.5 -61.5q-57 -48 -149 -48h-665q-92 0 -191 30.5t-163 88.5q-37 32 -66 75.5t-46.5 94t-29.5 99.5t-17 106.5t-7 102t-2 98.5q0 77 3 137.5t15 135.5t33 132.5t59 113.5t91 94q44 33 101 54.5t112 30t85 10.5t55 2h819v-333h-614 q-169 0 -243 -116q-22 -37 -34 -85.5t-14 -82.5t-2 -85t2.5 -85t14.5 -84t35 -88q35 -55 84 -76t113 -21h136q51 0 77 22q23 24 23 83v289h454z" />
<glyph unicode="H" horiz-adv-x="1617" d="M1517 1405v-1405h-454v558h-509v-558h-454v1405h454v-498h509v498h454z" />
<glyph unicode="I" horiz-adv-x="653" d="M554 0h-454v1405h454v-1405z" />
<glyph unicode="J" horiz-adv-x="1027" d="M-40 0v349h203q151 0 222 57q25 20 43 47t26.5 50.5t13 58t5 54t0.5 54.5v735h454v-888q0 -239 -128 -370q-147 -147 -380 -147h-459z" />
<glyph unicode="K" horiz-adv-x="1591" d="M1652 0h-547l-425 544q-62 77 -62 176q0 40 12.5 84t31.5 71l378 530h538l-488 -580q-42 -53 -42 -101q0 -68 57 -130zM100 0v1405h454v-1405h-454z" />
<glyph unicode="L" horiz-adv-x="1335" d="M1377 0h-1061q-101 0 -153 44q-27 22 -45 58.5t-18 77.5v1225h454v-970q0 -47 22 -67q21 -19 73 -19h728v-349z" />
<glyph unicode="M" horiz-adv-x="2149" d="M1561 851l-216 -679q-12 -36 -22 -59t-30.5 -50t-47 -42.5t-70 -26t-101.5 -10.5q-48 0 -86.5 6.5t-65.5 20.5t-46 29t-33 39t-22.5 44t-17.5 49l-217 679q-15 51 -28 51q-3 0 -5.5 -1.5t-4 -3.5t-2.5 -4.5t-2 -6t-1.5 -6.5t-0.5 -7.5v-6.5v-6.5v-4.5l14 -855h-456v1174 q0 51 16 91.5t39 65.5t59 43.5t64.5 27t67.5 13.5t57 5.5t43 0.5q26 0 46.5 -1t48.5 -4.5t51.5 -11t50 -18.5t48.5 -28.5t43.5 -41t39 -56t31.5 -72.5l227 -682q4 -16 18 -40t24 -24q7 0 17 13.5t16.5 27.5t8.5 23l227 682q15 45 36.5 81.5t45 60.5t53.5 41.5t56 26.5 t59 14.5t57 7t54 1.5q58 0 106.5 -7t82.5 -20t60.5 -28.5t43 -36t27.5 -39.5t16 -41.5t7 -39t2 -35.5v-1174h-457l15 855q0 47 -17 47q-13 0 -29 -51z" />
<glyph unicode="N" horiz-adv-x="1733" d="M1634 1405v-1170q0 -15 -1.5 -29.5t-8 -41.5t-18 -49t-34 -47.5t-54 -42.5t-80.5 -29t-109 -12q-47 0 -82 4.5t-76.5 18t-78.5 42.5t-69 73l-508 717q-24 34 -38 34q-27 0 -27 -40v-833h-350v1172q0 66 26 115.5t71 78t100 42t119 13.5q23 0 42.5 -1.5t48 -5t54 -12.5 t53 -23t53 -36.5t45.5 -51.5l512 -723q1 -1 3.5 -4.5t3.5 -5t3.5 -5t4.5 -5t4 -4.5t4.5 -4.5l5 -3t5 -2t4.5 -0.5q23 0 23 34v837h349z" />
<glyph unicode="O" horiz-adv-x="1665" d="M833 1421q65 0 110 -1t109 -5.5t113 -14t102 -24.5t98.5 -40.5t81.5 -58.5q37 -34 65 -77t44.5 -93.5t27 -96.5t15 -106.5t5.5 -101t1 -99.5t-1 -98.5t-5.5 -99.5t-15 -106.5t-27 -97.5t-44.5 -94.5t-65 -78.5q-27 -25 -59.5 -45.5t-70 -35t-74 -25.5t-81 -17.5t-82 -11 t-85 -6.5t-81.5 -2.5t-81 -0.5q-64 0 -109 1.5t-109 5.5t-113 13.5t-103 25t-99 40.5t-81 58q-32 30 -57 68t-41.5 75.5t-28.5 85t-18 86.5t-9.5 90.5t-4 86t-0.5 83.5q0 59 1 99.5t5.5 100.5t15.5 106.5t27.5 97t44.5 93.5t65 77q36 33 81.5 58.5t98.5 40.5t102 24.5 t113 14t109 5.5t110 1zM526 703q0 -96 10 -157.5t42 -110.5q42 -64 99 -83t156 -19q100 0 156 19t99 83q19 28 30 56.5t15.5 66t5.5 64t1 81.5q0 52 -0.5 69t-2.5 53t-7.5 53.5t-15.5 42.5t-26 48q-43 64 -99 83.5t-156 19.5q-99 0 -156 -19.5t-99 -83.5q-34 -51 -43 -107 t-9 -159z" />
<glyph unicode="P" horiz-adv-x="1578" d="M554 0h-454v1140q0 129 57 193q27 30 73.5 51t112.5 21h777q98 0 169.5 -20.5t125.5 -78.5q52 -55 78 -145.5t26 -237.5q0 -332 -126 -441q-47 -39 -115 -57.5t-132 -18.5h-592v-406zM554 755h325q3 0 18.5 -0.5t19.5 0t17.5 0.5t18.5 1.5t16.5 3t17.5 4t14.5 6.5t15.5 9 t13 12q35 38 35 122q0 23 -2 39t-11 36.5t-26 34.5q-18 15 -44.5 22.5t-45 8.5t-53.5 1h-251q-78 0 -78 -82v-218z" />
<glyph unicode="Q" horiz-adv-x="1695" d="M833 1421q65 0 110 -1t109 -5.5t113 -14t102 -24.5t98.5 -40.5t81.5 -58.5q41 -38 71 -90t46.5 -103.5t26 -116t12 -115t2.5 -111.5q0 -161 -17.5 -247.5t-51.5 -152.5v-8l155 16v-349h-858q-70 0 -122.5 1.5t-132 8.5t-138.5 20t-120.5 38t-100.5 60q-37 32 -65 75.5 t-44.5 95.5t-27.5 100t-15.5 108.5t-5.5 100.5t-1 95q0 59 1 99.5t5.5 100.5t15.5 106.5t27.5 97t44.5 93.5t65 77q36 33 81.5 58.5t98.5 40.5t102 24.5t113 14t109 5.5t110 1zM526 710q0 -95 10 -156t42 -110q22 -34 48 -55t60 -31t66.5 -13.5t80.5 -3.5q100 0 156 19.5 t99 83.5q19 28 30 56t15.5 65.5t5.5 64t1 80.5q0 46 -0.5 59t-1.5 46t-4 46.5t-8.5 37t-15 41.5t-22.5 37q-43 64 -99 83.5t-156 19.5q-99 0 -156 -19.5t-99 -83.5q-34 -51 -43 -107t-9 -160z" />
<glyph unicode="R" horiz-adv-x="1582" d="M100 0v1136q0 63 10.5 113t44.5 88q61 68 188 68h764q31 0 50.5 -0.5t55 -4t62.5 -12.5t59 -23.5t59.5 -39t50.5 -57.5q71 -108 71 -320q0 -222 -52 -346q-37 -89 -105.5 -132t-155.5 -43h-60v-8l402 -419h-546l-272 366q-4 5 -13.5 18t-14 18.5t-13.5 18t-13 19t-11 18 t-10.5 19.5t-8 19t-7 20t-4 19.5t-1.5 20.5v30q0 70 57.5 114.5t145.5 44.5h73q90 0 126 42q29 37 29 117q0 84 -33 117q-16 17 -41 25t-39 8.5t-46 0.5h-251q-49 0 -71 -21q-13 -12 -19 -28.5t-6.5 -25.5t-0.5 -34v-946h-454z" />
<glyph unicode="S" horiz-adv-x="1408" d="M54 0v349h779q78 0 78 44q0 30 -23 44.5t-67 26.5l-544 152q-103 29 -160 106q-24 32 -40 71t-23.5 81.5t-10.5 79.5t-3 82q0 41 2.5 71t10.5 69.5t27 75t48 64.5q90 89 241 89h928v-350h-715q-59 0 -74 -7q-5 -3 -9 -7t-6.5 -9t-4.5 -11t-2 -12q0 -15 10 -27.5t29.5 -22 t36 -15t42.5 -11.5l474 -126q129 -33 194 -98q31 -31 52 -72t30 -87t12 -82.5t3 -80.5q0 -39 -2 -68t-8 -68.5t-21 -75.5t-38 -66q-19 -26 -41 -45t-47 -30.5t-46.5 -19t-51 -10.5t-48 -3.5t-49.5 -0.5h-963z" />
<glyph unicode="T" horiz-adv-x="1416" d="M935 0h-453v1055h-502v350h1457v-350h-502v-1055z" />
<glyph unicode="U" horiz-adv-x="1593" d="M100 1405h454v-807q0 -29 1.5 -50.5t8 -50.5t22 -53.5t38.5 -43.5q30 -24 76.5 -37.5t96 -13.5t96.5 13.5t76 37.5q24 20 39.5 45.5t22 55t8 49.5t1.5 48v807h454v-843q0 -47 -3.5 -87t-13 -86.5t-25.5 -87t-42.5 -82t-62.5 -77.5q-42 -41 -94.5 -70.5t-103 -46 t-114.5 -26t-116.5 -12.5t-121.5 -3q-88 0 -153 5t-141 20.5t-140 48.5t-116 84q-45 44 -75.5 96t-45 108t-20.5 106t-6 110v843z" />
<glyph unicode="V" horiz-adv-x="1561" d="M425 1405l330 -953q5 -16 12.5 -23.5t13.5 -7.5q16 0 26 31l329 953h486l-488 -1194q-17 -40 -35 -71t-47 -61.5t-65 -50t-88.5 -32t-117.5 -12.5t-117.5 12.5t-88.5 32t-65.5 50t-47.5 61.5t-35 71l-487 1194h485z" />
<glyph unicode="W" horiz-adv-x="2303" d="M682 550l211 718q10 35 28 61.5t41 42.5t46.5 26.5t52 15t48 6t44 1.5t44 -1.5t48 -6t51.5 -15t46.5 -26.5t41 -42.5t27.5 -61.5l211 -718q1 -5 4.5 -13t8.5 -15t8 -7q16 0 27 43l233 847h462l-344 -1130q-22 -71 -47 -121.5t-53.5 -83.5t-66.5 -52t-79.5 -26.5 t-98.5 -7.5q-78 0 -134 16t-92.5 49.5t-59 74.5t-40.5 102l-178 611q-1 2 -2.5 7.5t-3 9.5t-4 9t-5 7.5t-5 2.5t-5.5 -2.5t-5 -7.5t-4 -9t-3.5 -9.5t-2.5 -7.5l-178 -611q-18 -61 -40.5 -102t-59 -74.5t-92.5 -49.5t-134 -16q-71 0 -120 12t-92 44t-74.5 89t-58.5 146 l-343 1130h462l232 -847q11 -43 27 -43q5 0 12 13t9 22z" />
<glyph unicode="X" horiz-adv-x="1472" d="M1534 0h-542l-255 395l-255 -395h-542l531 712l-515 693h542l239 -375l238 375h542l-515 -693z" />
<glyph unicode="Y" horiz-adv-x="1549" d="M775 799l349 606h485l-607 -1016v-389h-454v389l-608 1016h485z" />
<glyph unicode="Z" horiz-adv-x="1354" d="M1337 0h-1080h-30t-33.5 1.5t-37.5 4.5t-36.5 9.5t-36.5 15.5t-30.5 23t-26 32t-16 43t-6.5 55q0 156 136 287l559 533l4 3.5t6 6t5 6t4.5 7.5t1.5 7q0 8 -11 14.5t-25 6.5h-617v350h1089q32 0 57.5 -4t52 -16t44.5 -32t29 -54.5t11 -80.5q0 -49 -8.5 -87t-28.5 -69.5 t-35.5 -49.5t-45.5 -47l-596 -567q-3 -3 -7 -6.5t-6.5 -5.5t-4.5 -6t-2 -9q0 -22 24 -22h697v-349z" />
<glyph unicode="[" horiz-adv-x="824" d="M381 1160v-1229h383v-260h-664v1750h664v-261h-383z" />
<glyph unicode="\" horiz-adv-x="1038" d="M859 -341l-879 1827h200l879 -1827h-200z" />
<glyph unicode="]" horiz-adv-x="824" d="M444 -69v1229h-384v261h664v-1750h-664v260h384z" />
<glyph unicode="^" horiz-adv-x="1227" d="M992 1013l-301 236q-14 10 -37 20t-35.5 10t-35.5 -10t-37 -20l-303 -236l-143 165l388 295q24 18 60 30t66 12q20 0 43.5 -5.5t45.5 -15t38 -21.5l387 -295z" />
<glyph unicode="_" horiz-adv-x="1107" d="M60 0v318h988v-318h-988z" />
<glyph unicode="`" horiz-adv-x="680" d="M235 1680l385 -319l-174 -217l-386 317z" />
<glyph unicode="a" horiz-adv-x="1235" d="M109 1063h703q91 0 158 -26t106 -66q100 -98 100 -299v-446q0 -54 -10 -95.5t-42 -74.5q-33 -35 -77.5 -45.5t-102.5 -10.5h-626q-42 0 -70 2.5t-63.5 16t-62.5 37.5q-29 26 -47.5 64t-26 83.5t-10 77.5t-2.5 74q0 41 3 73t11.5 70.5t28 70.5t49.5 55q21 16 44.5 26 t50 14t46 5t49.5 1h465v16q0 42 -21 71q-20 26 -49.5 34t-70.5 8h-533v264zM783 417h-279q-38 0 -58 -17q-17 -17 -17 -51q0 -30 17 -46q20 -18 54 -18h205q41 0 57 14q21 16 21 52v66z" />
<glyph unicode="b" horiz-adv-x="1225" d="M60 1405h394v-342h285q35 0 61 -1.5t64.5 -6.5t70 -16.5t65.5 -29.5t64 -48.5t54 -69.5q25 -40 40.5 -85.5t21.5 -96t8 -87t2 -88.5q0 -240 -70 -358q-104 -176 -375 -176h-468q-50 0 -92.5 12t-77.5 50q-47 49 -47 131v1212zM454 787v-406q0 -59 19 -78q20 -18 71 -18 h80q56 0 87 18.5t49 54.5q29 64 29 180q0 107 -27 167q-36 82 -130 82h-178z" />
<glyph unicode="c" horiz-adv-x="1105" d="M1070 0h-614q-220 0 -326 126q-56 67 -75 159t-19 232q0 71 3.5 120.5t14.5 111t36 113t65 92.5q58 60 137.5 84.5t182.5 24.5h573v-268h-389q-33 0 -60.5 -4.5t-47.5 -13.5t-35.5 -20.5t-27 -26.5t-19 -30t-13.5 -34q-19 -57 -19 -140q0 -127 32 -185q13 -21 33 -35.5 t38.5 -22t45.5 -11t42 -4t40 -0.5q8 1 12 1h390v-269z" />
<glyph unicode="d" horiz-adv-x="1224" d="M770 1405h394v-1181q0 -103 -34 -151q-13 -20 -31.5 -34t-35.5 -21.5t-39.5 -11.5t-38.5 -5t-37 -1h-529q-123 0 -208.5 52.5t-126.5 152.5q-29 68 -38.5 152.5t-9.5 200.5q0 120 15 203t64 152q106 150 352 150h303v342zM770 791h-172q-82 0 -127 -65q-42 -59 -42 -190 q0 -130 29 -185q39 -78 140 -78h95q42 0 58 16q19 18 19 73v429z" />
<glyph unicode="e" horiz-adv-x="1214" d="M1140 0h-673q-39 0 -58.5 0.5t-54.5 2t-54.5 5t-48 9.5t-47.5 16.5t-41 24.5t-39.5 34.5t-33.5 45.5q-22 37 -34 92t-16 119.5t-4 169.5v50q0 57 0.5 85t2.5 74.5t7.5 74t14.5 61.5t24.5 59.5t36.5 47.5q24 24 56.5 42.5t74 29.5t81 18t94 10t95.5 4t101 1 q189 0 285 -12.5t154 -59.5q37 -30 61 -73t35 -95t15 -95.5t4 -94.5q0 -32 -1.5 -54t-7.5 -50t-19.5 -50.5t-35.5 -39.5q-23 -19 -47 -25t-58 -6h-580q-3 -50 19 -86q11 -18 28 -29t42 -15t42.5 -5t50.5 -1h13h516v-285zM429 670h291q20 0 34 6t20 15.5t8.5 17.5t2.5 17 q0 58 -73 73q-43 8 -103 8q-106 0 -138 -18q-28 -16 -36.5 -45t-5.5 -74z" />
<glyph unicode="f" horiz-adv-x="864" d="M560 0h-393v783h-159v280h159q3 80 38 153.5t106 120.5q134 89 546 84v-245q-130 -1 -180 -6.5t-73 -18.5q-29 -18 -38 -42.5t-6 -45.5h297v-280h-297v-783z" />
<glyph unicode="g" horiz-adv-x="1227" d="M111 -362v258h473h14.5h16.5t16 0.5t17.5 1t16.5 2t17.5 3.5t15.5 5t16.5 7t13.5 9q37 29 47 76h-340q-41 0 -69 1.5t-66.5 9.5t-67 21.5t-59.5 39.5t-54 62q-83 129 -83 402q0 154 24.5 242.5t83.5 156.5q60 70 136.5 99t201.5 29h437q60 0 106 -9t80 -39 q63 -53 63 -160v-736q0 -76 -6.5 -132.5t-25.5 -111.5t-52 -95q-111 -142 -377 -142h-596zM775 285v410q0 24 -6 39.5t-24 27.5q-24 17 -63 17h-44q-53 0 -91.5 -11t-67.5 -48q-42 -54 -42 -199q0 -131 45 -182q17 -19 37.5 -31t46.5 -16.5t42 -5.5t44 -1h10h113z" />
<glyph unicode="h" horiz-adv-x="1254" d="M60 0v1405h394v-342h234h19q58 0 89.5 -1t81 -7.5t91 -23.5t79.5 -45q71 -53 109 -131.5t38 -159.5v-695h-394v542q0 120 -60 182q-58 63 -163 63h-124v-787h-394z" />
<glyph unicode="i" horiz-adv-x="513" d="M60 0v1063h394v-1063h-394zM454 1170h-394v235h394v-235z" />
<glyph unicode="j" horiz-adv-x="674" d="M-80 -341v253q88 -2 134 8.5t86 41.5q41 33 60.5 78t19.5 125v898h394v-981q0 -247 -154 -347q-74 -48 -197.5 -64.5t-342.5 -11.5zM614 1170h-394v235h394v-235z" />
<glyph unicode="k" horiz-adv-x="1274" d="M1302 0h-441l-289 381q-62 83 -62 171q0 27 4 49t16 45.5t18.5 33.5t25.5 38l243 345h426l-324 -423q-28 -41 -28 -76q0 -46 40 -97zM454 0h-394v1405h394v-1405z" />
<glyph unicode="l" horiz-adv-x="513" d="M60 0v1405h394v-1405h-394z" />
<glyph unicode="m" horiz-adv-x="1725" d="M60 0v873q0 71 38 119q36 46 84 58.5t127 12.5h913q63 0 122 -10.5t115 -35t94 -60.5q54 -50 83.5 -129.5t29.5 -157.5v-670h-394v590q0 107 -42 151q-42 46 -127 46h-44v-787h-393v787h-151q-35 0 -51 -17q-10 -12 -10 -54v-716h-394z" />
<glyph unicode="n" horiz-adv-x="1256" d="M60 0v873q0 26 2 44t12 43t30 44q21 21 50 34t66 18t59 6t58 1h370q54 0 93.5 -2.5t88 -11.5t92 -29t82.5 -51q42 -33 70.5 -74t41.5 -85t17.5 -79.5t4.5 -75.5v-655h-394v540q0 64 -9 106.5t-35 75.5q-27 34 -65.5 49.5t-97.5 15.5h-70q-36 0 -55 -17q-3 -3 -5.5 -6 t-4.5 -6.5t-3 -6t-2 -7t-1.5 -6.5t-0.5 -7v-7v-7v-7v-710h-394z" />
<glyph unicode="o" horiz-adv-x="1300" d="M651 1076q77 0 131 -3t122 -13t123 -33t97 -60q140 -125 140 -435t-140 -436q-42 -36 -97 -59.5t-123 -33t-121.5 -12.5t-131.5 -3t-131.5 3t-122.5 12.5t-124 33t-97 59.5q-140 126 -140 436t140 435q34 30 79.5 51t89 32t101.5 17t101 7.5t104 1.5zM437 532 q0 -132 38 -187q5 -8 15 -17t30 -23t54.5 -23t76.5 -9q71 0 112.5 22.5t59.5 49.5q40 55 40 187q0 135 -38 190q-51 69 -174 69q-125 0 -176 -69q-38 -54 -38 -190z" />
<glyph unicode="p" horiz-adv-x="1233" d="M454 0v-341h-394v1202q0 53 15 94t57 71q23 16 50.5 25t49 10.5t51.5 1.5h494q201 0 307 -109q115 -119 115 -390q0 -293 -87 -417q-27 -39 -64.5 -67.5t-73.5 -43.5t-80.5 -23.5t-76.5 -10.5t-72 -2h-291zM454 285h172q58 0 93.5 24.5t52.5 58.5q16 28 20.5 66.5 t4.5 99.5q0 107 -18 154q-12 30 -32 50t-43 28t-37.5 10.5t-28.5 2.5h-138q-6 0 -17 -5t-16 -10q-13 -13 -13 -36v-443z" />
<glyph unicode="q" horiz-adv-x="1233" d="M1174 -341h-393v341h-365q-93 0 -169.5 38.5t-122.5 97.5q-52 68 -70 156t-18 210q0 62 3.5 112.5t12.5 111.5t29.5 114t50.5 93q52 68 131 99t151 31h545q39 0 75 -10t63 -27t43 -38q34 -47 34 -149v-1180zM781 285v420q0 44 -24 63t-71 19h-46q-64 0 -108 -17.5 t-68 -62.5q-17 -31 -22 -73t-5 -113q0 -37 1 -56.5t6 -48t16 -48.5q13 -29 33 -47.5t44.5 -25.5t39 -8.5t35.5 -1.5h169z" />
<glyph unicode="r" horiz-adv-x="840" d="M60 0v616q0 49 3.5 86.5t14.5 88t38.5 94.5t69.5 78q41 34 93.5 56t111 30.5t98 11t91.5 2.5h261v-276h-136q-68 0 -116.5 -15.5t-82.5 -61.5q-52 -69 -52 -202v-508h-394z" />
<glyph unicode="s" horiz-adv-x="1107" d="M48 0v285h580q13 0 25 8q9 7 9 20q0 15 -18 24q-8 5 -120 42l-229 75q-168 56 -219 140q-40 66 -40 178q0 118 50 191q39 59 97 79.5t150 20.5h711v-272h-578q-39 0 -47 -2q-17 -4 -17 -19q0 -10 5 -15t16 -8q21 -7 31 -11t20.5 -8.5t29.5 -11.5l268 -90 q101 -34 156 -63.5t89 -80.5q55 -79 55 -205q0 -69 -19 -128t-69 -99q-63 -50 -176 -50h-760z" />
<glyph unicode="t" horiz-adv-x="838" d="M839 0h-228q-44 0 -72.5 1.5t-78.5 7.5t-95 22t-84 42q-64 43 -99 114t-35 146v458h-151v272h151v342h393v-342h303v-272h-303v-243q0 -151 69 -213q25 -22 59 -34t57 -14t56 -2h58v-285z" />
<glyph unicode="u" horiz-adv-x="1272" d="M60 1063h394v-529q0 -128 38 -183q47 -66 167 -66h71q47 0 69 22q20 20 20 64v692h393v-846q0 -54 -13.5 -95t-52.5 -74q-59 -48 -173 -48h-481q-191 0 -297 90q-77 63 -106 160.5t-29 233.5v579z" />
<glyph unicode="v" horiz-adv-x="1260" d="M362 1063l242 -613q12 -36 26.5 -36t26.5 36l243 613h408l-449 -979q-14 -31 -39 -51.5t-59 -29.5t-63 -12t-68 -3t-67.5 3t-62.5 12t-59 29.5t-39 51.5l-450 979h410z" />
<glyph unicode="w" horiz-adv-x="1810" d="M325 1063l161 -611q8 -33 20 -33q8 0 18 31l156 513q34 113 226 113q49 0 87.5 -7.5t61.5 -18.5t39.5 -27.5t23.5 -29.5t12 -30l157 -513q10 -31 17 -31t13 11.5t8 21.5l161 611h372l-242 -862q-12 -40 -23.5 -68t-33.5 -57.5t-50 -47t-72.5 -29t-101.5 -11.5t-101.5 9 t-73 23t-49.5 35t-31.5 41.5t-18.5 45.5l-140 464q-1 2 -2.5 7.5t-2.5 9t-2.5 7.5t-3.5 6t-4 2t-3.5 -1t-3 -3.5t-2.5 -4.5t-2.5 -5.5t-2 -6t-2 -6.5t-1.5 -5l-140 -464q-8 -25 -18.5 -45.5t-31.5 -41.5t-49.5 -35t-73 -23t-101.5 -9t-101 11.5t-72.5 29t-50 47t-33 57.5 t-23.5 68l-243 862h373z" />
<glyph unicode="x" horiz-adv-x="1211" d="M1260 0h-457l-197 301l-196 -301h-458l423 546l-389 517h447l173 -272l173 272h447l-389 -517z" />
<glyph unicode="y" horiz-adv-x="1272" d="M1321 1063l-637 -1406h-393l167 343l-506 1063h401l279 -674l295 674h394z" />
<glyph unicode="z" horiz-adv-x="1082" d="M178 0q-85 0 -129.5 58.5t-44.5 146.5q0 74 24 121t74 86l460 350q16 13 16 19q0 10 -20 10h-516v272h841q12 0 23 -0.5t32 -4.5t38 -11t37.5 -22t34 -34.5t23 -51t9.5 -70.5q0 -140 -96 -212l-446 -341q-17 -13 -17 -23q0 -3 1.5 -4.5t4 -2.5t4 -1h5.5h4h521v-285h-883z " />
<glyph unicode="{" horiz-adv-x="659" d="M303 578v-16q34 -13 56 -33.5t31.5 -49t12.5 -51.5t3 -55v-220q0 -86 50 -127q21 -17 63.5 -27.5t80.5 -10.5v-261q-65 -4 -148.5 7.5t-140.5 34.5q-44 17 -76.5 44t-51 53.5t-30.5 60t-16.5 58t-6.5 53.5q-6 68 -6 134v179q0 54 -27.5 91.5t-76.5 41.5v173q20 1 37 9 t29.5 20t21 28.5t12.5 35t4 39.5v178q0 67 6 135q2 28 6.5 52.5t16.5 58t30.5 60.5t51 53.5t76.5 44.5q57 23 140.5 34t148.5 8v-261q-18 0 -38 -2.5t-40 -7t-37.5 -12t-28.5 -16.5q-50 -40 -50 -126v-222q0 -24 -1.5 -42.5t-7.5 -42.5t-16.5 -41.5t-30.5 -34.5t-47 -27z " />
<glyph unicode="|" horiz-adv-x="400" d="M100 -341v1827h201v-1827h-201z" />
<glyph unicode="}" horiz-adv-x="659" d="M358 562v16q-34 12 -56.5 33t-31.5 49.5t-12 51.5t-3 54v222q0 86 -50 126q-22 18 -65 28t-80 10v261q65 3 148.5 -8t140.5 -34q166 -68 181 -269q6 -68 6 -135v-178q0 -54 27 -91t77 -41v-173q-25 -2 -45 -13.5t-33 -29.5t-19.5 -41t-6.5 -49v-179q0 -66 -6 -134 q-15 -201 -181 -269q-57 -23 -140.5 -34.5t-148.5 -7.5v261q37 0 80 10.5t65 27.5q50 41 50 127v220q0 25 1.5 43.5t7 42.5t16 41.5t30.5 34.5t48 27z" />
<glyph unicode="~" horiz-adv-x="1291" d="M261 662l-161 139q35 49 84 93.5t93 68.5q78 44 160 44q70 0 149 -32l111 -46q68 -27 126 -27q48 0 81 12t61 38q44 40 67 82l161 -132q-34 -50 -80 -97t-92 -75q-89 -58 -198 -58q-68 0 -157 37l-94 42q-43 21 -122 21q-36 0 -61 -7.5t-56 -29.5q-42 -31 -72 -73z" />
<glyph unicode="&#xa9;" horiz-adv-x="1620" d="M810 1421q54 0 85.5 -0.5t77 -3.5t78 -10t71.5 -18.5t76 -29.5t74 -43t68.5 -54t55 -58.5t42.5 -63.5t32 -66.5t22.5 -70.5t15 -72t8.5 -75t4 -75t1 -76q0 -64 -3 -114t-11 -111t-25.5 -111.5t-44 -102t-68.5 -96.5t-97 -82q-53 -34 -109 -56t-117.5 -32t-112 -13 t-123 -3t-123 3t-112 13t-117.5 32t-109 56q-47 32 -85 71t-63.5 78.5t-44.5 87t-29.5 91t-16.5 96.5t-8 96t-2 97q0 55 1.5 98t7.5 95.5t16.5 95t29.5 89.5t44.5 85.5t63.5 77t86 70.5q44 30 91 50t86 31t92 16.5t90.5 6.5t101.5 1zM331 705q0 -47 2 -84.5t7.5 -81.5 t16.5 -80t28 -71.5t43 -65t60 -52.5q25 -16 55.5 -29t58.5 -21.5t60 -14t54 -8.5t46.5 -4.5t32.5 -1.5h15q13 0 27.5 0.5t56.5 4.5t78.5 11.5t82 24t79.5 38.5q40 27 69.5 65.5t46 79t26 93t12.5 96.5t3 101q0 38 -1.5 69.5t-5.5 69.5t-11 70t-19 65.5t-28 61t-39.5 53.5 t-52.5 46q-114 74 -324 74q-208 0 -322 -74q-40 -27 -69.5 -66.5t-46 -80.5t-26 -93.5t-12.5 -96t-3 -98.5zM1086 355h-337q-37 0 -60 2t-54.5 10t-58.5 27t-50 50q-66 88 -66 266q0 47 1 73t7.5 66.5t22 74t41.5 62.5q46 53 97 69.5t126 16.5h304v-175h-208q-17 0 -28 -0.5 t-27 -4t-27.5 -9t-24 -17t-22.5 -27.5q-6 -12 -10 -25t-5.5 -31.5t-1.5 -32v-40.5v-12v-14.5v-13t0.5 -14.5t1.5 -13.5t2 -14.5t3 -13.5t4.5 -14t5.5 -12.5q10 -18 21.5 -29.5t27 -16.5t29 -6.5t35.5 -1.5h251v-179z" />
<glyph unicode="&#xab;" horiz-adv-x="1275" d="M693 907l-195 -279q-23 -34 -23 -64t23 -64l195 -280l-249 -192l-291 380q-53 67 -53 156t53 156l291 380zM1176 766l-108 -154q-22 -31 -22 -48t22 -49l108 -153l-257 -193l-205 266q-59 81 -59 129t59 129l205 266z" />
<glyph unicode="&#xad;" d="M60 379v318h857v-318h-857z" />
<glyph unicode="&#xae;" horiz-adv-x="1071" d="M536 552q-44 0 -75.5 1.5t-75 9t-76.5 21t-68.5 39t-64.5 61.5q-26 34 -42.5 73t-23.5 83t-8.5 73.5t-1.5 74.5q0 35 1 58.5t5.5 62.5t13 68.5t25.5 63.5t41 61q28 32 66 54.5t72 34t77.5 18t70.5 7.5t64 1q49 0 86 -3t83 -12t86.5 -29t73.5 -52q36 -34 59.5 -77.5 t32.5 -93t11.5 -83t2.5 -79.5q0 -104 -20 -186.5t-78 -142.5q-33 -36 -73 -58.5t-87 -32.5t-85.5 -13t-91.5 -3zM536 676q17 0 37.5 1.5t55.5 6.5t68.5 17.5t57.5 31.5q82 68 82 246q0 32 -2.5 64t-9 67t-18.5 65.5t-28 48.5q-59 69 -243 69q-33 0 -58 -2t-62.5 -7.5 t-69 -21t-53.5 -38.5q-58 -62 -58 -232q0 -165 44 -226q22 -29 62 -49.5t89.5 -30.5t105.5 -10zM452 781h-141v375q0 32 12 44q8 9 28 11.5t74 2.5h177q78 0 107 -15q16 -11 26 -26.5t14 -37.5t5 -36t1 -38q0 -21 -1.5 -37t-7 -38.5t-15 -37t-27.5 -25t-43 -10.5h-23 l124 -132h-172l-76 104q-2 2 -6.5 8.5t-6 9t-5 8t-4.5 9t-3 9t-2.5 11.5t-0.5 14q0 29 13.5 46t38.5 17h24q27 0 36 6q4 4 8.5 14t4.5 15v22q0 3 -2 8.5t-4.5 10.5t-4.5 7q-9 10 -46 10h-56q-32 0 -38 -7q-8 -3 -8 -42v-280z" />
<glyph unicode="&#xbb;" horiz-adv-x="1275" d="M100 766l258 193l204 -266q60 -82 60 -129t-60 -129l-204 -266l-258 193l109 153q22 32 22 49t-22 48zM584 907l249 193l291 -380q52 -66 52 -156t-52 -156l-291 -380l-249 192l195 280q22 32 22 64t-22 64z" />
<glyph unicode="&#x401;" horiz-adv-x="1406" d="M1347 0h-1012q-54 0 -94 9t-76 39q-24 19 -38 39.5t-19.5 45.5t-6.5 42t-1 49v964q0 104 61 160q61 57 170 57h1010v-342h-695q-47 0 -70 -19q-22 -18 -22 -69v-106h767v-305h-767v-152q0 -36 20 -52q11 -9 28 -13.5t27 -5t32 -0.5h686v-341zM1166 1497h-365v240h365 v-240zM630 1497h-365v240h365v-240z" />
<glyph unicode="&#x402;" horiz-adv-x="1795" d="M283 0v1055h-323v350h1361v-350h-584v-176h632q37 0 68 -4.5t68 -17t70.5 -39t60.5 -65.5q21 -32 34 -70t18.5 -80.5t6.5 -69.5t1 -67q0 -54 -2 -95t-9.5 -93t-24 -95.5t-42.5 -75.5q-27 -34 -60.5 -56.5t-71 -33t-69 -14t-69.5 -3.5h-369v349h121q92 0 116 32 q14 19 14 81q0 66 -26 92q-24 24 -80 24h-387v-578h-454z" />
<glyph unicode="&#x403;" horiz-adv-x="1268" d="M454 0h-454v1148q0 29 1.5 48.5t6 46t17 50t31.5 44.5q29 30 73 49t93 19h1046v-350h-720q-3 0 -11 0.5t-11.5 0.5t-11 -0.5t-12 -1.5t-10.5 -2t-10 -3.5t-8.5 -5.5t-7.5 -7q-12 -16 -12 -71v-965zM705 2021l174 -219l-385 -316l-175 216z" />
<glyph unicode="&#x404;" horiz-adv-x="1247" d="M1249 0h-691q-255 0 -393 121q-96 84 -130.5 223.5t-34.5 369.5q0 68 2 118.5t10 117.5t22.5 118t42 104.5t65.5 91.5q141 141 416 141h672v-350h-427q-75 0 -130.5 -9t-104.5 -35q-85 -44 -102 -136h736v-317h-736q-1 -24 4 -47t17.5 -47.5t37.5 -46t61 -36.5 q81 -32 243 -32h420v-349z" />
<glyph unicode="&#x405;" horiz-adv-x="1408" d="M54 0v349h779q78 0 78 44q0 30 -23 44.5t-67 26.5l-544 152q-103 29 -160 106q-24 32 -40 71t-23.5 81.5t-10.5 79.5t-3 82q0 41 2.5 71t10.5 69.5t27 75t48 64.5q90 89 241 89h928v-350h-715q-59 0 -74 -7q-5 -3 -9 -7t-6.5 -9t-4.5 -11t-2 -12q0 -15 10 -27.5t29.5 -22 t36 -15t42.5 -11.5l474 -126q129 -33 194 -98q31 -31 52 -72t30 -87t12 -82.5t3 -80.5q0 -39 -2 -68t-8 -68.5t-21 -75.5t-38 -66q-19 -26 -41 -45t-47 -30.5t-46.5 -19t-51 -10.5t-48 -3.5t-49.5 -0.5h-963z" />
<glyph unicode="&#x406;" horiz-adv-x="653" d="M554 0h-454v1405h454v-1405z" />
<glyph unicode="&#x407;" horiz-adv-x="789" d="M622 0h-453v1405h453v-1405zM831 1497h-358v259h358v-259zM318 1497h-358v259h358v-259z" />
<glyph unicode="&#x408;" horiz-adv-x="1027" d="M-40 0v349h203q151 0 222 57q25 20 43 47t26.5 50.5t13 58t5 54t0.5 54.5v735h454v-888q0 -239 -128 -370q-147 -147 -380 -147h-459z" />
<glyph unicode="&#x409;" horiz-adv-x="2597" d="M-40 0l806 1302q21 35 46.5 56.5t67 36t99 20.5t143.5 6q98 0 165 -7t116 -22.5t76.5 -43t40 -66t12.5 -94.5v-311h630q30 0 52.5 -1.5t58 -9.5t63 -22t56.5 -41.5t50 -65.5q55 -104 55 -300q0 -200 -67 -301q-16 -23 -39.5 -45t-58 -43.5t-82 -34.5t-101.5 -13h-870 q-42 0 -80 20t-63 49q-58 66 -58 196v761q0 35 -23 35q-14 0 -25 -21l-555 -1040h-515zM1532 560v-127q0 -44 12 -62q7 -10 21 -15.5t24.5 -6t28.5 -0.5h234h13h43t30 1.5t27 4t19 7.5q48 27 48 98q0 34 -10.5 57t-42.5 35q-6 2 -12.5 3.5t-14.5 2t-14 1t-17 1t-18 0.5h-21 h-22h-328z" />
<glyph unicode="&#x40a;" horiz-adv-x="2622" d="M1557 907h630q26 0 46.5 -1.5t48.5 -6.5t51 -16.5t48 -29.5t47.5 -47.5t40.5 -68.5q31 -67 42.5 -135.5t11.5 -164.5q0 -205 -66 -301q-16 -23 -39.5 -45t-58 -43.5t-82.5 -34.5t-101 -13h-872q-41 0 -78.5 20t-63.5 49q-59 68 -59 196v297h-509v-562h-454v1405h454v-498 h509v498h454v-498zM1557 562v-129q0 -39 13 -62q5 -8 11.5 -13t16 -7t14 -2.5t17.5 0t14 0.5h236h13h34t26.5 0.5t24 2t18 4t16.5 6.5q46 26 46 98q0 17 -1.5 28.5t-6.5 25.5t-16 23.5t-28 16.5q-6 2 -12.5 3.5t-14 2t-14 1t-17 1t-17.5 0.5h-21h-23h-329z" />
<glyph unicode="&#x40b;" horiz-adv-x="1783" d="M283 0v1055h-323v350h1361v-350h-584v-176h652q137 0 208 -60q30 -25 49 -55.5t26.5 -65.5t9.5 -58.5t2 -59.5v-580h-454v475q0 19 -1 30t-7.5 26.5t-19.5 26.5q-25 20 -92 20h-373v-578h-454z" />
<glyph unicode="&#x40c;" horiz-adv-x="1551" d="M0 0v1405h454v-1405h-454zM1551 0h-546l-425 544q-82 106 -82 174.5t64 156.5l377 530h538l-487 -580q-59 -70 -59 -105q0 -21 14 -47t26.5 -41.5t33.5 -37.5zM812 2021l176 -219l-386 -316l-175 216z" />
<glyph unicode="&#x40e;" horiz-adv-x="1586" d="M831 0h-494l225 400l-562 1005h506l293 -598l295 598h494zM270 1827h284q25 -61 72 -99q31 -24 77 -37t90 -13t92 13.5t76 36.5q41 33 71 99h282q-25 -73 -73.5 -148.5t-104.5 -117.5q-64 -48 -155 -72t-188 -24t-188.5 24t-154.5 72q-57 42 -106 117.5t-74 148.5z" />
<glyph unicode="&#x40f;" horiz-adv-x="1617" d="M582 -341v341h-247q-45 0 -91 13.5t-75 38.5q-20 16 -33.5 36.5t-20 38t-10.5 41t-4.5 38t-0.5 35.5v1164h454v-972q0 -36 12 -58q6 -9 12.5 -15t16 -8t15.5 -2.5t18 -0.5h362q25 0 36.5 4t25.5 22q6 9 9 17.5t3 13t-0.5 14.5t-0.5 13v972h454v-1164q0 -28 -1.5 -46 t-7 -46.5t-20.5 -52.5t-39 -44q-19 -17 -47.5 -29t-59 -17.5t-59.5 -5.5h-247v-341h-454z" />
<glyph unicode="&#x410;" horiz-adv-x="1601" d="M-40 0l519 1250q18 44 39 72t56.5 52t91.5 35.5t135 11.5q38 0 66 -2t61.5 -7.5t59 -17t51 -30t46.5 -47t37 -67.5l520 -1250h-478l-110 289h-506l-111 -289h-477zM783 965l-126 -354h289l-127 354q-12 31 -18 31t-18 -31z" />
<glyph unicode="&#x411;" horiz-adv-x="1572" d="M1431 1405v-350h-791q-31 0 -49 -5t-26 -18t-9.5 -25t-1.5 -36v-100h648q77 0 136.5 -26t94.5 -66q80 -93 80 -331q0 -71 -4.5 -124t-23 -113.5t-50.5 -101.5q-10 -14 -25 -28.5t-43 -34.5t-70 -33t-91 -13h-909q-87 0 -142 55.5t-55 141.5v983q0 44 10 79.5t24.5 58.5 t36 40t41 25.5t42.5 14t37 6.5t28 1h1112zM554 566v-124q0 -23 2 -39.5t8 -26.5t11.5 -15.5t18 -8t21 -3t27.5 -0.5h9h266q76 0 104 26q27 25 27 87q0 20 -1 30.5t-8 24.5t-22 25q-30 24 -100 24h-363z" />
<glyph unicode="&#x412;" horiz-adv-x="1555" d="M100 222v956q0 101 49 157q26 30 70 50t88 20h763q45 0 80 -3t78.5 -11.5t80.5 -28.5t66 -50q88 -90 88 -301q0 -69 -13 -119.5t-57 -98.5q-60 -65 -141 -71v-8q99 -8 167 -72q27 -26 43.5 -55.5t23 -65.5t8 -61.5t1.5 -66.5v-58t-4.5 -57t-12.5 -64t-25 -57.5t-42 -58.5 q-22 -24 -45 -41.5t-50.5 -27.5t-49.5 -16.5t-56 -9t-54.5 -3t-59.5 -0.5h-734h-10q-31 0 -50 1t-48.5 6.5t-54.5 20.5t-46 39q-25 29 -39 71.5t-14 83.5zM554 865h337q26 0 41 1.5t35.5 10.5t32.5 27q13 24 13 63q0 36 -21 61q-13 13 -34 19.5t-33.5 7t-35.5 0.5h-259 q-14 0 -21.5 -0.5t-17.5 -4t-19 -10.5q-9 -8 -13 -19.5t-4.5 -18.5t-0.5 -23v-114zM554 560v-106q0 -65 16 -85q19 -20 85 -20h240q98 0 120 28q7 8 13 22t10 30.5t4 30.5q0 35 -19 59q-14 19 -36.5 28.5t-37.5 11t-42 1.5h-353z" />
<glyph unicode="&#x413;" horiz-adv-x="1348" d="M554 0h-454v1148q0 22 0.5 37.5t4 38t9 40t16.5 37t27 36.5q28 30 72.5 49t93.5 19h1046v-350h-720q-3 0 -10 0.5t-10.5 0.5t-10 -0.5t-10.5 -1t-9.5 -1.5t-9.5 -2.5t-8.5 -3.5t-8 -4.5t-6.5 -6.5q-12 -17 -12 -71v-965z" />
<glyph unicode="&#x414;" horiz-adv-x="1641" d="M119 349l379 913q10 25 21.5 44t36 42t57.5 38t86.5 25t121.5 10q58 0 104.5 -6.5t79 -19t56 -27t40 -34t25.5 -35.5t18 -37l377 -913h141v-349h-1682v349h139zM799 959l-225 -610h494l-225 610q-1 2 -2 6t-2 7t-2.5 7t-3 6.5t-3.5 5t-4 4t-5 1.5q-10 0 -22 -37z" />
<glyph unicode="&#x415;" horiz-adv-x="1386" d="M1347 0h-1012q-54 0 -94 9t-76 39q-24 19 -38 39.5t-19.5 45.5t-6.5 42t-1 49v964q0 104 61 160q61 57 170 57h1010v-342h-695q-47 0 -70 -19q-22 -18 -22 -69v-106h767v-305h-767v-152q0 -36 20 -52q11 -9 28 -13.5t27 -5t32 -0.5h686v-341z" />
<glyph unicode="&#x416;" horiz-adv-x="2407" d="M-40 0l459 594q69 91 69 128q0 9 -2.5 18t-5.5 16.5t-10.5 19t-11 16.5t-13 18t-12.5 17l-401 578h522l315 -522q20 -32 31.5 -53t22 -51t10.5 -53q0 -20 -6 -42.5t-17.5 -47t-25 -48t-33.5 -54.5l-341 -534h-550zM2449 0h-551l-341 534q-27 42 -43 71.5t-27.5 61.5 t-11.5 59q0 52 65 157l323 522h521l-409 -578q-2 -3 -10.5 -14.5t-11.5 -15.5t-9.5 -14t-9.5 -16t-6.5 -14.5t-5 -16t-1.5 -14.5q0 -37 68 -128zM977 0v1405h454v-1405h-454z" />
<glyph unicode="&#x417;" horiz-adv-x="1420" d="M80 0v349h630q111 0 143 17q42 26 42 90q0 58 -38 84q-18 11 -48 14.5t-97 3.5h-605v305h596h17h18.5t17.5 0.5t18.5 1t16.5 2t17 3.5t14 4.5t14 6t11 8.5q26 24 26 80q0 29 -7.5 47.5t-30.5 29.5q-26 9 -126 9h-621v350h779h58t56.5 -2t59 -5.5t54 -10.5t55.5 -17.5 t48 -26.5t45 -37q26 -28 43.5 -63t24.5 -75.5t9.5 -73t2.5 -77.5q0 -80 -14.5 -135.5t-63.5 -102.5q-50 -49 -127 -63v-7q24 0 47.5 -3.5t52.5 -13t55.5 -32t45.5 -54.5q27 -46 34.5 -98.5t7.5 -128.5q0 -46 -3.5 -82.5t-14.5 -82.5t-37 -85t-65 -67q-25 -18 -59.5 -30.5 t-62 -19t-73 -9.5t-65.5 -3.5t-69 0t-55 0.5h-777z" />
<glyph unicode="&#x418;" horiz-adv-x="1729" d="M1630 0h-462l20 825q0 13 -0.5 20t-2 15.5t-6 12.5t-11.5 4t-15 -10.5t-25 -39.5q-3 -4 -4 -6t-3.5 -5.5t-4.5 -7.5l-400 -682q-16 -29 -36.5 -51t-55 -44t-88 -34.5t-122.5 -12.5q-51 0 -93.5 7.5t-73 22t-54.5 33t-40 43.5t-27 50.5t-16.5 57.5t-7.5 60.5t-2 62.5v1084 h462l-20 -805v-22q0 -48 24 -48q5 0 9 3t9 10.5t9.5 14.5t12.5 22l388 676q18 33 40 59t43.5 43t47 29t46 18.5t45.5 10t42 4.5t39 1q66 0 119 -13.5t87.5 -34.5t59 -53t37.5 -60.5t20 -67t8.5 -62.5t1.5 -56v-1074z" />
<glyph unicode="&#x419;" horiz-adv-x="1729" d="M1630 0h-462l20 825q0 13 -0.5 20t-2 15.5t-6 12.5t-11.5 4t-15 -10.5t-25 -39.5q-3 -4 -4 -6t-3.5 -5.5t-4.5 -7.5l-400 -682q-16 -29 -36.5 -51t-55 -44t-88 -34.5t-122.5 -12.5q-51 0 -93.5 7.5t-73 22t-54.5 33t-40 43.5t-27 50.5t-16.5 57.5t-7.5 60.5t-2 62.5v1084 h462l-20 -805v-7q0 -16 0.5 -24t2.5 -18.5t7.5 -15.5t13.5 -5q5 0 9 3t9 10.5t9.5 14.5t12.5 22l388 676q18 33 40 59t43.5 43t47 29t46 18.5t45.5 10t42 4.5t39 1q66 0 119 -13.5t87.5 -34.5t59 -53t37.5 -60.5t20 -67t8.5 -62.5t1.5 -56v-1074zM337 1783h283 q26 -61 73 -99q30 -24 76.5 -37t89.5 -13q45 0 92.5 13t76.5 37q39 31 70 99h283q-9 -27 -22.5 -56t-30.5 -59t-36.5 -57t-42.5 -52t-47 -42q-63 -48 -154 -72t-188.5 -24t-189 24t-155.5 72q-56 42 -104.5 117.5t-73.5 148.5z" />
<glyph unicode="&#x41a;" horiz-adv-x="1631" d="M140 0v1405h454v-1405h-454zM1691 0h-545l-426 544q-82 106 -82 174q0 67 65 157l377 530h538l-488 -580q-58 -69 -58 -105q0 -48 74 -126z" />
<glyph unicode="&#x41b;" horiz-adv-x="1565" d="M-60 0l539 1277q17 39 46.5 67t60 42.5t70.5 23t67 10t60 1.5q27 0 49 -1.5t54.5 -5.5t59.5 -14t54.5 -25t49.5 -40t36 -58l540 -1277h-482l-339 929q-1 2 -4 8.5t-5 11.5t-6 9.5t-7 4.5t-6 -2.5t-5.5 -7t-4.5 -9l-4 -9t-3 -6.5l-339 -929h-481z" />
<glyph unicode="&#x41c;" horiz-adv-x="2149" d="M1561 851l-216 -679q-12 -36 -22 -59t-30.5 -50t-47 -42.5t-70 -26t-101.5 -10.5q-48 0 -86.5 6.5t-65.5 20.5t-46 29t-33 39t-22.5 44t-17.5 49l-217 679q-15 51 -28 51q-3 0 -5.5 -1.5t-4 -3.5t-2.5 -4.5t-2 -6t-1.5 -6.5t-0.5 -7.5v-6.5v-6.5v-4.5l14 -855h-456v1174 q0 51 16 91.5t39 65.5t59 43.5t64.5 27t67.5 13.5t57 5.5t43 0.5q26 0 46.5 -1t48.5 -4.5t51.5 -11t50 -18.5t48.5 -28.5t43.5 -41t39 -56t31.5 -72.5l227 -682q4 -16 18 -40t24 -24q7 0 17 13.5t16.5 27.5t8.5 23l227 682q15 45 36.5 81.5t45 60.5t53.5 41.5t56 26.5 t59 14.5t57 7t54 1.5q58 0 106.5 -7t82.5 -20t60.5 -28.5t43 -36t27.5 -39.5t16 -41.5t7 -39t2 -35.5v-1174h-457l15 855q0 47 -17 47q-13 0 -29 -51z" />
<glyph unicode="&#x41d;" horiz-adv-x="1617" d="M1517 1405v-1405h-454v558h-509v-558h-454v1405h454v-498h509v498h454z" />
<glyph unicode="&#x41e;" horiz-adv-x="1665" d="M833 1421q65 0 110 -1t109 -5.5t113 -14t102 -24.5t98.5 -40.5t81.5 -58.5q37 -34 65 -77t44.5 -93.5t27 -96.5t15 -106.5t5.5 -101t1 -99.5t-1 -98.5t-5.5 -99.5t-15 -106.5t-27 -97.5t-44.5 -94.5t-65 -78.5q-27 -25 -59.5 -45.5t-70 -35t-74 -25.5t-81 -17.5t-82 -11 t-85 -6.5t-81.5 -2.5t-81 -0.5q-64 0 -109 1.5t-109 5.5t-113 13.5t-103 25t-99 40.5t-81 58q-32 30 -57 68t-41.5 75.5t-28.5 85t-18 86.5t-9.5 90.5t-4 86t-0.5 83.5q0 59 1 99.5t5.5 100.5t15.5 106.5t27.5 97t44.5 93.5t65 77q36 33 81.5 58.5t98.5 40.5t102 24.5 t113 14t109 5.5t110 1zM526 703q0 -96 10 -157.5t42 -110.5q42 -64 99 -83t156 -19q100 0 156 19t99 83q19 28 30 56.5t15.5 66t5.5 64t1 81.5q0 52 -0.5 69t-2.5 53t-7.5 53.5t-15.5 42.5t-26 48q-43 64 -99 83.5t-156 19.5q-99 0 -156 -19.5t-99 -83.5q-34 -51 -43 -107 t-9 -159z" />
<glyph unicode="&#x41f;" horiz-adv-x="1605" d="M961 1068h-317h-7h-7.5h-7t-7.5 -0.5t-6.5 -1t-7 -1.5t-6.5 -3t-7 -4t-6.5 -4.5t-7.5 -5.5q-20 -21 -20 -73v-975h-454v1202q0 88 55 143q22 21 46.5 34.5t54 18.5t48 6t51.5 1h11h879q75 0 121 -10.5t85 -49.5q54 -54 54 -143v-1202h-453v975q0 53 -20 73q-21 20 -71 20 z" />
<glyph unicode="&#x420;" horiz-adv-x="1578" d="M554 0h-454v1140q0 129 57 193q27 30 73.5 51t112.5 21h777q98 0 169.5 -20.5t125.5 -78.5q52 -55 78 -145.5t26 -237.5q0 -332 -126 -441q-47 -39 -115 -57.5t-132 -18.5h-592v-406zM554 755h325q3 0 18.5 -0.5t19.5 0t17.5 0.5t18.5 1.5t16.5 3t17.5 4t14.5 6.5t15.5 9 t13 12q35 38 35 122q0 23 -2 39t-11 36.5t-26 34.5q-18 15 -44.5 22.5t-45 8.5t-53.5 1h-251q-78 0 -78 -82v-218z" />
<glyph unicode="&#x421;" horiz-adv-x="1329" d="M1291 0h-623q-177 0 -287.5 36t-191.5 136q-66 82 -97.5 200t-31.5 312q0 127 9.5 218t37 175t75.5 145q27 34 60 62t66 46.5t72 32.5t74 22t76 12.5t73.5 6t70.5 1.5h594v-350h-375h-11h-60t-53 -2t-51 -6t-43 -12t-41 -19.5t-32.5 -29t-29.5 -40.5q-46 -81 -46 -253 q0 -164 34 -233q12 -24 30 -41.5t36 -29t46.5 -19.5t49 -12t57.5 -6.5t58.5 -2.5h64.5h389v-349z" />
<glyph unicode="&#x422;" horiz-adv-x="1416" d="M935 0h-453v1055h-502v350h1457v-350h-502v-1055z" />
<glyph unicode="&#x423;" horiz-adv-x="1507" d="M791 0h-494l224 400l-561 1005h506l293 -598l295 598h493z" />
<glyph unicode="&#x424;" horiz-adv-x="1998" d="M772 1405h454v-126h215q48 0 80.5 -1t73 -4t68.5 -9t59.5 -17t54.5 -26.5t45.5 -38t40.5 -51.5q75 -128 75 -412q0 -114 -14 -228t-47 -181q-16 -33 -38 -58.5t-45 -42.5t-53 -29t-56 -18.5t-61.5 -10t-62 -4.5t-64.5 -1h-271v-147h-454v147h-270q-44 0 -75 1.5 t-71.5 6.5t-70.5 16t-62 28.5t-57 45.5t-44 66q-23 46 -38 123.5t-19.5 146.5t-4.5 139q0 282 76 412q21 34 46.5 59t58 40.5t64 25.5t76.5 14.5t82.5 6t94.5 1.5h214v126zM772 496v433h-56q-136 0 -172 -82q-18 -40 -18 -137q0 -73 16 -116q19 -49 63 -73.5t128 -24.5h39z M1226 496h40q57 0 96 12t60.5 33t34.5 53q16 43 16 116q0 97 -18 137q-36 82 -172 82h-57v-433z" />
<glyph unicode="&#x425;" horiz-adv-x="1513" d="M1553 0h-542l-254 395l-255 -395h-542l532 712l-516 693h541l240 -375l239 375h542l-517 -693z" />
<glyph unicode="&#x426;" horiz-adv-x="1689" d="M1710 0h-1337h-13q-33 0 -51 1t-45 5t-49 15.5t-43 30.5q-72 65 -72 205v1148h454v-926q0 -84 18 -106q23 -24 92 -24h404v1056h453v-1056h189v-349z" />
<glyph unicode="&#x427;" horiz-adv-x="1593" d="M1494 0h-454v556h-636q-34 0 -69.5 7.5t-72.5 23.5t-71 45.5t-57 70.5q-54 96 -54 241v461h454v-350v-12.5v-15.5t0.5 -15t1.5 -16t2 -14.5t3.5 -16t5.5 -13t7 -13t10 -10.5q16 -15 46.5 -19t86.5 -4h343v499h454v-1405z" />
<glyph unicode="&#x428;" horiz-adv-x="2271" d="M909 1405h454v-1056h273q49 0 66 22q16 21 16 77v957h454v-1194q0 -102 -56 -155q-59 -56 -165 -56h-1630q-103 0 -162 56q-59 54 -59 155v1194h454v-957q0 -54 16 -77q18 -22 66 -22h273v1056z" />
<glyph unicode="&#x429;" horiz-adv-x="2339" d="M2360 349v-349h-2039q-103 0 -162 56q-59 54 -59 155v1194h454v-957q0 -54 16 -77q18 -22 66 -22h273v1056h454v-1056h355v1056h454v-1056h188z" />
<glyph unicode="&#x42a;" horiz-adv-x="1741" d="M-20 1055v350h506q111 0 175 -68q55 -61 55 -155v-285h631q30 0 54 -2t59 -11t62 -25.5t56 -47.5t50 -74q31 -66 42.5 -137t11.5 -158q0 -207 -66 -306q-16 -23 -39.5 -45t-58 -43.5t-82.5 -34.5t-101 -13h-871q-42 0 -79.5 20t-63.5 49q-58 68 -58 196v696q0 52 -16 73 q-17 21 -52 21h-215zM716 580v-147q0 -46 12 -62q7 -10 21.5 -15.5t24.5 -6t29 -0.5h235h27.5h25h20t19 1t15 2.5t14.5 3.5t11 6q20 10 33 37.5t13 73.5q0 17 -1.5 29t-6.5 26.5t-16.5 25.5t-29.5 18q-7 3 -15 4.5t-15 2.5t-19 1h-19h-23.5h-24.5h-330z" />
<glyph unicode="&#x42b;" horiz-adv-x="2201" d="M100 1405h454v-508h630q31 0 54.5 -2t58.5 -11t62 -25.5t56 -47.5t50 -74q32 -66 43 -137t11 -158q0 -207 -66 -306q-16 -23 -39.5 -45t-58 -43.5t-82 -34.5t-101.5 -13h-871q-42 0 -79.5 20t-62.5 49q-59 68 -59 196v1140zM554 580v-147q0 -45 12 -62q8 -10 21.5 -15.5 t24 -6t28.5 -0.5h235h22h20.5h17.5h16t13.5 0.5t12.5 1.5t11 2.5t10.5 3.5t8.5 5q20 10 33.5 37.5t13.5 73.5q0 11 -1 19t-2.5 18.5t-5 19t-9.5 16.5t-15 15t-21 11q-7 3 -15.5 4.5t-15 2.5t-19 1h-19h-23.5h-25h-329zM2101 0h-454v1405h454v-1405z" />
<glyph unicode="&#x42c;" horiz-adv-x="1578" d="M100 1405h454v-508h630q31 0 54.5 -2t58.5 -11t62 -25.5t56 -47.5t50 -74q32 -66 43 -137t11 -158q0 -207 -66 -306q-16 -23 -39.5 -45t-58 -43.5t-82 -34.5t-101.5 -13h-871q-42 0 -79.5 20t-62.5 49q-59 68 -59 196v1140zM554 580v-147q0 -45 12 -62q8 -10 21.5 -15.5 t24 -6t28.5 -0.5h235h22h20.5h17.5h16t13.5 0.5t12.5 1.5t11 2.5t10.5 3.5t8.5 5q20 10 33.5 37.5t13.5 73.5q0 11 -1 19t-2.5 18.5t-5 19t-9.5 16.5t-15 15t-21 11q-7 3 -15.5 4.5t-15 2.5t-19 1h-19h-23.5h-25h-329z" />
<glyph unicode="&#x42d;" horiz-adv-x="1368" d="M60 0v349h419q162 0 243 32q29 12 51 28.5t35.5 34.5t21.5 38.5t10.5 38.5t2.5 37h-736v317h736q-18 93 -102 136q-84 44 -235 44h-428v350h673q274 0 415 -141q38 -38 65.5 -91.5t42 -104.5t22.5 -118t10 -117.5t2 -118.5q0 -74 -3 -134.5t-10 -119t-19 -106t-30 -90.5 t-43.5 -78.5t-58.5 -64.5q-138 -121 -393 -121h-691z" />
<glyph unicode="&#x42e;" horiz-adv-x="2346" d="M554 875h191q1 108 39.5 219.5t115.5 182.5q31 29 71 51.5t79 37.5t89 25.5t91 16t96.5 9t93.5 4t93 0.5t93.5 -0.5t94 -4t97 -9t91.5 -16t89 -25.5t78.5 -37.5t71.5 -51.5q36 -34 64 -77t45 -93.5t27.5 -97t15 -106.5t5.5 -100.5t1 -99.5q0 -58 -1 -98.5t-5.5 -100 t-15 -106t-27.5 -97.5t-45 -94.5t-64 -78.5q-36 -33 -81.5 -58t-99.5 -40.5t-103 -25t-113 -13.5t-109 -5.5t-109 -1.5t-108.5 1.5t-108.5 5.5t-113.5 13.5t-103 25t-98.5 40.5t-81 58q-75 71 -117 191.5t-42 244.5h-187v-564h-454v1405h454v-530zM1206 703 q0 -96 10.5 -157.5t41.5 -110.5q22 -33 48 -54.5t60 -31.5t66 -13t81 -3q100 0 156 19t99 83q25 36 37 81t14 81t2 106q0 59 -1 84t-5.5 63t-15.5 64.5t-31 54.5q-43 64 -99 83.5t-156 19.5q-99 0 -156 -19.5t-99 -83.5q-18 -27 -29 -55t-15.5 -64t-6 -65.5t-1.5 -81.5z" />
<glyph unicode="&#x42f;" horiz-adv-x="1586" d="M1488 0h-454v963q0 47 -27 71q-21 21 -70 21h-284q-32 0 -56.5 -8t-44.5 -34q-28 -36 -28 -109q0 -80 16 -103q32 -60 121 -60h92q18 0 33.5 -1t42 -5t46.5 -13.5t40 -24t31 -39t11 -56.5v-32q0 -30 -6 -56t-21.5 -53t-25.5 -41t-33 -45l-285 -375h-546l391 414v5h-60 q-28 0 -58 6.5t-63.5 20.5t-64.5 42t-53 66q-38 68 -49.5 160.5t-11.5 220.5q0 53 1.5 88t7.5 81.5t20.5 87t37.5 76.5q52 82 131 109.5t206 27.5h808q26 0 54.5 -8t55 -23t44.5 -33q51 -56 51 -165v-1176z" />
<glyph unicode="&#x430;" horiz-adv-x="1235" d="M109 1063h703q91 0 158 -26t106 -66q100 -98 100 -299v-446q0 -54 -10 -95.5t-42 -74.5q-33 -35 -77.5 -45.5t-102.5 -10.5h-626q-42 0 -70 2.5t-63.5 16t-62.5 37.5q-29 26 -47.5 64t-26 83.5t-10 77.5t-2.5 74q0 41 3 73t11.5 70.5t28 70.5t49.5 55q21 16 44.5 26 t50 14t46 5t49.5 1h465v16q0 42 -21 71q-20 26 -49.5 34t-70.5 8h-533v264zM783 417h-279q-38 0 -58 -17q-17 -17 -17 -51q0 -30 17 -46q20 -18 54 -18h205q41 0 57 14q21 16 21 52v66z" />
<glyph unicode="&#x431;" horiz-adv-x="1258" d="M1166 1136h-467q-32 0 -46.5 -0.5t-46 -4t-55.5 -13t-43 -24.5q-59 -47 -54 -131h337q38 0 68.5 -1.5t75.5 -9.5t80.5 -22t73 -41.5t63.5 -65.5q44 -60 57 -138.5t13 -186.5q0 -120 -14.5 -206.5t-61.5 -155.5q-17 -24 -36.5 -43.5t-39 -34t-47 -26t-49.5 -18.5 t-58.5 -12t-61 -8t-69.5 -4t-72.5 -1.5t-80.5 -0.5q-59 0 -94.5 0.5t-88 4t-86.5 9.5t-75.5 17.5t-70 28t-56 42t-46.5 57.5q-20 32 -31.5 67.5t-16.5 77.5t-6 71t-1 77v546q0 158 64 255q24 35 56.5 63.5t67.5 47t74 31t74.5 17.5t69.5 5h700v-269zM454 710v-293 q0 -18 6 -39t18.5 -42t29.5 -33q36 -30 120 -30q85 0 127 24q19 11 32 29.5t19.5 34.5t10 41t4 38.5t0.5 36.5q0 111 -22 157q-13 27 -45.5 51.5t-85.5 24.5h-214z" />
<glyph unicode="&#x432;" horiz-adv-x="1235" d="M60 195v654q0 52 18 97t48 71q35 29 86 37.5t119 8.5h504h16q48 0 75.5 -1t70.5 -7t75.5 -22t57.5 -41q65 -67 65 -203q0 -56 -12 -101t-49 -79q-18 -17 -43.5 -30.5t-53.5 -21t-56 -9.5v-4q42 -3 86 -20t73 -45q60 -58 60 -182q0 -158 -74 -228q-21 -21 -49.5 -34.5 t-51.5 -20.5t-62 -10t-58 -3.5t-64 -0.5h-520q-48 0 -74.5 1.5t-65 12t-62.5 30.5q-23 18 -41 55t-18 96zM454 666h239q66 0 90 16q22 15 22 57q0 28 -22 42q-23 14 -78 14h-171q-37 0 -55 -14q-25 -18 -25 -55v-60zM454 421v-72q0 -32 12 -46q13 -18 49 -18h188 q5 0 21 -0.5t22.5 0t18 5.5t22.5 15q13 12 16.5 21.5t3.5 24.5q0 14 -0.5 20.5t-6 16.5t-15.5 18q-8 5 -16 8.5t-19 5t-15.5 2t-18.5 0t-15 -0.5h-247z" />
<glyph unicode="&#x433;" horiz-adv-x="1065" d="M454 0h-394v861q0 29 1 46.5t8 45t21 47.5q10 13 23 25.5t44 25t67 12.5h881v-268h-577q-13 0 -29.5 -7.5t-25.5 -17.5q-19 -19 -19 -69v-701z" />
<glyph unicode="&#x434;" horiz-adv-x="1291" d="M86 285l320 672q15 33 38 56t45.5 35t53 18.5t52 8t51.5 1.5q24 0 42 -1t43.5 -4.5t45.5 -11.5t41 -20.5t38.5 -33t30.5 -48.5l319 -672h106v-285h-1332v285h106zM628 722l-168 -437h373l-169 437q-11 23 -18 23t-18 -23z" />
<glyph unicode="&#x435;" horiz-adv-x="1214" d="M1140 0h-673q-39 0 -58.5 0.5t-54.5 2t-54.5 5t-48 9.5t-47.5 16.5t-41 24.5t-39.5 34.5t-33.5 45.5q-22 37 -34 92t-16 119.5t-4 169.5v50q0 57 0.5 85t2.5 74.5t7.5 74t14.5 61.5t24.5 59.5t36.5 47.5q24 24 56.5 42.5t74 29.5t81 18t94 10t95.5 4t101 1 q189 0 285 -12.5t154 -59.5q37 -30 61 -73t35 -95t15 -95.5t4 -94.5q0 -32 -1.5 -54t-7.5 -50t-19.5 -50.5t-35.5 -39.5q-23 -19 -47 -25t-58 -6h-580q-3 -50 19 -86q11 -18 28 -29t42 -15t42.5 -5t50.5 -1h13h516v-285zM429 670h291q20 0 34 6t20 15.5t8.5 17.5t2.5 17 q0 58 -73 73q-43 8 -103 8q-106 0 -138 -18q-28 -16 -36.5 -45t-5.5 -74z" />
<glyph unicode="&#x436;" horiz-adv-x="1882" d="M1128 0h-373v1063h373v-1063zM1923 0h-435l-266 423q-50 82 -50 117q0 37 46 120q3 4 8 13l6 11l212 379h431l-255 -414q-6 -11 -16.5 -27t-15 -23.5t-9.5 -17.5t-7 -17t-2 -14q0 -27 50 -102zM-40 0l303 448q50 75 50 102q0 7 -2 14t-7.5 17t-10 17.5t-14.5 23.5t-16 27 l-255 414h432l211 -379q2 -4 6 -11l21 -39t16 -32t12.5 -34t3.5 -28q0 -35 -49 -117l-266 -423h-435z" />
<glyph unicode="&#x437;" horiz-adv-x="1165" d="M60 0v285h560q15 0 24.5 0.5t24.5 2t24.5 6t19.5 11.5t15 18.5t5 27.5q0 23 -11 38.5t-31.5 22t-36.5 8t-38 1.5h-526v245h528q17 0 28.5 1t28.5 4.5t27 9.5t18 18.5t8 30.5q0 19 -7.5 32t-17.5 19t-27 9.5t-27.5 4t-28.5 0.5h-540v268h705h50t50.5 -3t59 -9t50.5 -19 t51 -32q72 -66 72 -203q0 -116 -57 -181q-63 -67 -155 -62v-8q94 5 155 -64q65 -72 65 -193q0 -155 -86 -229q-25 -21 -55 -34t-66 -18t-62.5 -6.5t-69.5 -1.5h-727z" />
<glyph unicode="&#x438;" horiz-adv-x="1346" d="M1287 0h-394l20 552q0 32 -16 32q-4 0 -7 -1.5t-7 -5.5t-6.5 -7t-7 -9t-8.5 -9l-377 -472q-47 -58 -88 -75t-111 -17q-31 0 -57 3t-59 15t-55.5 32.5t-38 59t-15.5 91.5v874h394l-21 -551q0 -30 19 -30q4 0 7.5 1.5t6.5 3.5t7 6t5.5 6.5t5 7t4.5 5.5l385 484q17 20 27 30 t31 24t52 20t74 6q47 0 84 -9.5t60.5 -23t40.5 -34.5t25.5 -39t13 -41.5t5.5 -36t1 -29.5v-863z" />
<glyph unicode="&#x439;" horiz-adv-x="1346" d="M1287 0h-394l20 552q0 32 -16 32q-4 0 -7 -1.5t-7 -5.5t-6.5 -7t-7 -9t-8.5 -9l-377 -472q-47 -58 -88 -75t-111 -17q-31 0 -57 3t-59 15t-55.5 32.5t-38 59t-15.5 91.5v874h394l-21 -551q0 -30 19 -30q4 0 7.5 1.5t6.5 3.5t7 6t5.5 6.5t5 7t4.5 5.5l385 484q17 20 27 30 t31 24t52 20t74 6q47 0 84 -9.5t60.5 -23t40.5 -34.5t25.5 -39t13 -41.5t5.5 -36t1 -29.5v-863zM672 1302q34 0 56.5 4t46 16.5t44.5 35.5q34 37 48 88h259q-10 -48 -29 -94.5t-46.5 -88.5t-58.5 -70q-34 -31 -74.5 -51.5t-84.5 -30t-80.5 -12.5t-80 -3t-80 3t-80.5 12.5 t-85 30t-74 51.5q-48 42 -83.5 111t-50.5 142h258q14 -50 49 -88q22 -23 45 -35.5t45 -16.5t56 -4z" />
<glyph unicode="&#x43a;" horiz-adv-x="1237" d="M454 0h-394v1063h394v-1063zM1298 0h-441l-311 427q-52 73 -52 119q0 48 64 140l261 377h433l-315 -404q-58 -75 -58 -111q0 -15 9 -34.5t15 -28t22 -29.5z" />
<glyph unicode="&#x43b;" horiz-adv-x="1344" d="M-20 0l472 981q3 8 9 17t23 24t39 26t61.5 19.5t87.5 8.5q35 0 65.5 -4.5t51.5 -11t39 -16.5t28.5 -18.5t19 -18t11.5 -15.5t6 -11l472 -981h-394l-278 686q-10 28 -21 28q-10 0 -19 -28l-280 -686h-393z" />
<glyph unicode="&#x43c;" horiz-adv-x="1645" d="M1176 570l-169 -478q-7 -22 -18.5 -39.5t-26 -28.5t-29.5 -18.5t-34.5 -11t-36.5 -5t-39 -1.5q-33 0 -58 3.5t-51 14t-45 32t-31 54.5l-169 476q-9 28 -21 28q-6 0 -10.5 -6t-4.5 -18l21 -572h-394v873q0 51 24 91t64.5 63.5t90 36t104.5 12.5q112 0 178 -38.5t97 -126.5 l167 -461q7 -21 18 -33.5t20 -12.5q6 0 13 5.5t14 16t11 24.5l167 461q31 88 97 126.5t177 38.5q36 0 70.5 -5.5t66.5 -16t58.5 -27.5t46.5 -39t31 -51.5t11 -63.5v-873h-393l19 574q0 9 -2.5 15t-5.5 7.5t-5 1.5q-14 0 -23 -28z" />
<glyph unicode="&#x43d;" horiz-adv-x="1256" d="M1197 0h-394v406h-349v-406h-394v1063h394v-372h349v372h394v-1063z" />
<glyph unicode="&#x43e;" horiz-adv-x="1300" d="M651 1076q77 0 131 -3t122 -13t123 -33t97 -60q140 -125 140 -435t-140 -436q-42 -36 -97 -59.5t-123 -33t-121.5 -12.5t-131.5 -3t-131.5 3t-122.5 12.5t-124 33t-97 59.5q-140 126 -140 436t140 435q34 30 79.5 51t89 32t101.5 17t101 7.5t104 1.5zM437 532 q0 -132 38 -187q5 -8 15 -17t30 -23t54.5 -23t76.5 -9q71 0 112.5 22.5t59.5 49.5q40 55 40 187q0 135 -38 190q-51 69 -174 69q-125 0 -176 -69q-38 -54 -38 -190z" />
<glyph unicode="&#x43f;" horiz-adv-x="1264" d="M301 1063h662q42 0 68 -2t61.5 -15.5t61.5 -40.5q31 -31 40.5 -65t9.5 -81v-859h-394v728q0 38 -19 53q-16 14 -50 14h-217q-35 0 -51 -14q-19 -15 -19 -53v-728h-394v859q0 47 10 81t41 65q20 20 43 32.5t50 18t46.5 6.5t50.5 1z" />
<glyph unicode="&#x440;" horiz-adv-x="1233" d="M454 0v-341h-394v1202q0 53 15 94t57 71q23 16 50.5 25t49 10.5t51.5 1.5h494q201 0 307 -109q115 -119 115 -390q0 -293 -87 -417q-27 -39 -64.5 -67.5t-73.5 -43.5t-80.5 -23.5t-76.5 -10.5t-72 -2h-291zM454 285h172q58 0 93.5 24.5t52.5 58.5q16 28 20.5 66.5 t4.5 99.5q0 107 -18 154q-12 30 -32 50t-43 28t-37.5 10.5t-28.5 2.5h-138q-6 0 -17 -5t-16 -10q-13 -13 -13 -36v-443z" />
<glyph unicode="&#x441;" horiz-adv-x="1105" d="M1070 0h-614q-220 0 -326 126q-56 67 -75 159t-19 232q0 71 3.5 120.5t14.5 111t36 113t65 92.5q58 60 137.5 84.5t182.5 24.5h573v-268h-389q-33 0 -60.5 -4.5t-47.5 -13.5t-35.5 -20.5t-27 -26.5t-19 -30t-13.5 -34q-19 -57 -19 -140q0 -127 32 -185q13 -21 33 -35.5 t38.5 -22t45.5 -11t42 -4t40 -0.5q8 1 12 1h390v-269z" />
<glyph unicode="&#x442;" horiz-adv-x="1187" d="M791 0h-393v783h-398v280h1188v-280h-397v-783z" />
<glyph unicode="&#x443;" horiz-adv-x="1327" d="M1348 1063l-636 -1406h-393l167 343l-506 1063h420l270 -651l286 651h392z" />
<glyph unicode="&#x444;" horiz-adv-x="1821" d="M716 1405h389v-342h256q251 0 351 -161q75 -121 75 -381q0 -120 -18 -214t-71 -167q-31 -43 -72 -72t-88.5 -43t-90.5 -19.5t-95 -5.5h-247v-341h-389v341h-247q-51 0 -94 5.5t-90.5 19.5t-88.5 43t-72 72q-36 51 -56.5 118.5t-26 126.5t-5.5 136q0 260 75 381 q99 161 351 161h254v342zM716 277v510h-42q-23 0 -33.5 -0.5t-36 -2t-42 -6.5t-37.5 -13t-37 -22.5t-28 -33.5q-31 -49 -31 -183q0 -115 31 -166q13 -24 33 -40.5t38 -24.5t46.5 -12.5t45 -5t46.5 -0.5h9h38zM1105 277h39h9q25 0 38.5 0.5t37.5 2.5t40 7.5t35 14t33.5 23.5 t25.5 35q30 50 30 166q0 136 -30 183q-12 19 -28 33.5t-37.5 22.5t-37.5 13t-42 6.5t-36.5 2t-33.5 0.5h-43v-510z" />
<glyph unicode="&#x445;" horiz-adv-x="1268" d="M1289 0h-458l-197 301l-197 -301h-457l424 546l-390 517h448l172 -272l173 272h447l-389 -517z" />
<glyph unicode="&#x446;" horiz-adv-x="1344" d="M1365 0h-1137q-22 0 -38.5 2t-38 11.5t-40.5 26.5q-51 46 -51 125v898h394v-695q0 -48 17 -65q9 -9 23 -13.5t19.5 -4.5h24.5h267v778h394v-778h166v-285z" />
<glyph unicode="&#x447;" horiz-adv-x="1256" d="M1197 0h-394v381h-484q-133 0 -210 109q-23 32 -36 69t-17 69t-4 73v362h394v-220q0 -91 16 -117q29 -44 128 -44h213v381h394v-1063z" />
<glyph unicode="&#x448;" horiz-adv-x="1733" d="M672 1063h389v-774h169q31 0 44 18q11 15 11 51v705h389v-874v-12q0 -32 -1.5 -48t-11 -39t-29.5 -42q-23 -22 -52.5 -33.5t-48.5 -13t-51 -1.5h-9h-1208q-40 0 -60.5 1.5t-50 13t-50.5 33.5q-27 28 -34.5 60.5t-7.5 80.5v874h390v-705q0 -38 10 -51q13 -18 44 -18h168 v774z" />
<glyph unicode="&#x449;" horiz-adv-x="1842" d="M670 1063h389v-774h224v774h389v-774h170v-289h-1579q-37 0 -60 2t-53 14t-50 34q-40 45 -40 139v874h390v-703q0 -40 8 -53q3 -5 11.5 -9t18 -6.5t16.5 -2.5h166v774z" />
<glyph unicode="&#x44a;" horiz-adv-x="1392" d="M0 1063h429q65 0 113 -40q64 -52 64 -150v-164h480q52 0 96.5 -16t68 -34.5t40.5 -40.5q65 -82 65 -291q0 -37 -2 -65t-9 -66.5t-25 -72.5t-46 -61q-40 -39 -83 -50.5t-107 -11.5h-661q-105 0 -156 54q-11 11 -21.5 27t-21.5 52t-11 78v503q0 36 -16 56q-18 23 -57 23 h-140v270zM606 448v-75q0 -48 22 -68q20 -20 63 -20h160q60 0 78 14q27 18 27 70q0 47 -23 62q-24 17 -82 17h-245z" />
<glyph unicode="&#x44b;" horiz-adv-x="1793" d="M60 1063h394v-354h479q52 0 96.5 -16t68 -34.5t40.5 -40.5q66 -83 66 -291q0 -37 -2 -65t-9 -66.5t-25 -72.5t-46 -61q-40 -39 -83.5 -50.5t-107.5 -11.5h-661q-104 0 -155 54q-12 11 -22.5 27t-21.5 52t-11 78v852zM454 448v-75q0 -49 21 -68q20 -20 63 -20h161 q60 0 78 14q9 6 15 14.5t8 20.5t2.5 18t0.5 17q0 47 -20 62q-33 17 -84 17h-245zM1341 0v1063h393v-1063h-393z" />
<glyph unicode="&#x44c;" horiz-adv-x="1239" d="M60 1063h394v-354h479q52 0 96.5 -16t68 -34.5t40.5 -40.5q66 -83 66 -291q0 -37 -2 -65t-9 -66.5t-25 -72.5t-46 -61q-40 -39 -83.5 -50.5t-107.5 -11.5h-661q-104 0 -155 54q-12 11 -22.5 27t-21.5 52t-11 78v852zM454 448v-75q0 -49 21 -68q20 -20 63 -20h161 q60 0 78 14q9 6 15 14.5t8 20.5t2.5 18t0.5 17q0 47 -20 62q-33 17 -84 17h-245z" />
<glyph unicode="&#x44d;" horiz-adv-x="1113" d="M36 0v285h370q45 0 73.5 1.5t66.5 6.5t64.5 17.5t42.5 32.5q23 29 23 82h-611v249h611q-7 56 -46 85q-8 6 -17.5 11.5t-18 9.5t-21.5 7t-21 5t-23.5 3.5t-22.5 2t-24 1t-22.5 0.5h-24h-21.5h-364v264h638q188 0 287 -113q49 -59 76 -152t27 -248q0 -299 -94 -420 q-28 -36 -65 -61.5t-70.5 -38.5t-78.5 -20t-73 -8.5t-69 -1.5h-592z" />
<glyph unicode="&#x44e;" horiz-adv-x="1863" d="M442 672h152q2 71 19.5 131.5t42 99.5t56.5 68q34 29 80 49.5t90 31t104 16.5t103 7t106 1q51 0 87 -1t86.5 -4t89.5 -10t80.5 -18t76 -29.5t61.5 -42.5q128 -118 128 -433q0 -320 -128 -442q-39 -36 -95 -59.5t-127 -33t-126 -12.5t-133 -3q-80 0 -135 3t-124.5 12.5 t-125.5 33t-98 59.5q-52 46 -86.5 127t-31.5 200h-152v-423h-382v1063h382v-391zM979 528v-16.5v-20t0.5 -19.5t1.5 -21.5t2.5 -20.5t4 -22t6 -20t8.5 -20.5t11 -18.5q11 -16 24 -28t26 -19.5t29 -13.5t28 -8.5t28 -4t25 -2t22 -0.5q18 0 31 1t36.5 5t41 11t37.5 22.5 t34 36.5q22 31 29 75t7 104q0 138 -34 190q-50 73 -182 73q-134 0 -184 -73q-6 -9 -11.5 -21t-8.5 -21.5t-5.5 -25t-4 -23.5t-2 -27t-0.5 -23.5v-25.5v-23z" />
<glyph unicode="&#x44f;" horiz-adv-x="1245" d="M20 0l287 364q11 10 11 21q0 13 -27 13h-26q-91 0 -152 77q-30 39 -47 89.5t-20.5 89t-3.5 89.5q0 35 3 64.5t11.5 65.5t28 68.5t47.5 58.5q33 30 78.5 46.5t92.5 16.5h672q92 0 145 -46q39 -34 52.5 -79.5t13.5 -106.5v-831h-393v705q0 56 -21 74q-18 16 -71 16h-177 q-15 0 -23 -0.5t-19.5 -5t-21.5 -12.5q-9 -7 -14.5 -14.5t-7.5 -16.5t-2.5 -14.5t-0.5 -17.5q0 -41 18.5 -57.5t61.5 -16.5h97q60 0 94.5 -29t34.5 -81q0 -75 -55 -159l-244 -371h-422z" />
<glyph unicode="&#x451;" horiz-adv-x="1214" d="M1140 0h-673q-39 0 -58.5 0.5t-54.5 2t-54.5 5t-48 9.5t-47.5 16.5t-41 24.5t-39.5 34.5t-33.5 45.5q-22 37 -34 92t-16 119.5t-4 169.5v50q0 57 0.5 85t2.5 74.5t7.5 74t14.5 61.5t24.5 59.5t36.5 47.5q24 24 56.5 42.5t74 29.5t81 18t94 10t95.5 4t101 1 q189 0 285 -12.5t154 -59.5q37 -30 61 -73t35 -95t15 -95.5t4 -94.5q0 -32 -1.5 -54t-7.5 -50t-19.5 -50.5t-35.5 -39.5q-23 -19 -47 -25t-58 -6h-580q-3 -50 19 -86q11 -18 28 -29t42 -15t42.5 -5t50.5 -1h13h516v-285zM429 670h291q20 0 34 6t20 15.5t8.5 17.5t2.5 17 q0 58 -73 73q-43 8 -103 8q-106 0 -138 -18q-28 -16 -36.5 -45t-5.5 -74zM701 1200v237h347v-237h-347zM524 1200h-348v237h348v-237z" />
<glyph unicode="&#x452;" horiz-adv-x="1322" d="M128 0v1158h-148v177h148v70h393v-70h316v-177h-316v-95h298q184 0 286 -69q33 -22 59 -49.5t42 -51.5t27.5 -57.5t17 -55.5t8.5 -57.5t3 -52v-50.5v-315q0 -101 -17 -201q-12 -70 -26 -117.5t-41 -114.5q-46 -119 -110 -213h-409q84 121 138 255q43 108 58 193 q14 86 14 200v241q0 109 -57 172q-59 67 -166 67h-125v-787h-393z" />
<glyph unicode="&#x453;" horiz-adv-x="1045" d="M393 0h-393v861q0 29 1 46.5t8 45t21 47.5q10 13 23.5 25.5t44 25t67.5 12.5h881v-268h-579q-13 0 -29 -7.5t-24 -17.5q-21 -20 -21 -69v-701zM616 1680l175 -219l-385 -317l-175 217z" />
<glyph unicode="&#x454;" horiz-adv-x="1161" d="M1102 0h-574q-38 0 -63.5 1t-64 5t-68 13t-63 23.5t-62.5 39t-52 56.5q-95 128 -95 416q0 263 103 388q101 121 306 121h619v-268h-454q-94 0 -142 -48q-30 -31 -30 -73h612v-260h-612q0 -61 36 -95q38 -34 144 -34h460v-285z" />
<glyph unicode="&#x455;" horiz-adv-x="1107" d="M48 0v285h580q13 0 25 8q9 7 9 20q0 15 -18 24q-8 5 -120 42l-229 75q-168 56 -219 140q-40 66 -40 178q0 118 50 191q39 59 97 79.5t150 20.5h711v-272h-578q-39 0 -47 -2q-17 -4 -17 -19q0 -10 5 -15t16 -8q21 -7 31 -11t20.5 -8.5t29.5 -11.5l268 -90 q101 -34 156 -63.5t89 -80.5q55 -79 55 -205q0 -69 -19 -128t-69 -99q-63 -50 -176 -50h-760z" />
<glyph unicode="&#x456;" horiz-adv-x="513" d="M60 0v1063h394v-1063h-394zM454 1170h-394v235h394v-235z" />
<glyph unicode="&#x457;" horiz-adv-x="730" d="M169 0v1063h393v-1063h-393zM437 1184v257h333v-257h-333zM293 1184h-333v257h333v-257z" />
<glyph unicode="&#x458;" horiz-adv-x="674" d="M-80 -341v253q88 -2 134 8.5t86 41.5q41 33 60.5 78t19.5 125v898h394v-981q0 -247 -154 -347q-74 -48 -197.5 -64.5t-342.5 -11.5zM614 1170h-394v235h394v-235z" />
<glyph unicode="&#x459;" horiz-adv-x="2036" d="M-20 0l566 969q33 57 106 82t209 25q45 0 77.5 -1t67.5 -3.5t59 -7t49 -12t41 -18t30.5 -25.5t23 -35t13 -45t4.5 -56v-197h488q118 0 182 -62q27 -25 44.5 -60t25 -76.5t9.5 -71.5t2 -71q0 -40 -2.5 -69t-9.5 -69.5t-25 -75.5t-46 -61q-38 -37 -82.5 -48.5t-107.5 -11.5 h-660q-105 0 -157 54q-8 8 -15.5 19t-17 30t-15.5 47t-6 61v519q0 25 -4.5 40.5t-8.5 19t-8 3.5q-5 0 -12.5 -7.5t-12.5 -17.5l-368 -768h-439zM1226 416v-43q0 -48 23 -68q19 -20 61 -20h161q59 0 78 14q27 17 27 50v4v5t-0.5 5t-0.5 5.5t-1 5t-2 5.5t-2.5 5.5t-3.5 5.5 t-4.5 5t-6.5 5q-23 16 -84 16h-245z" />
<glyph unicode="&#x45a;" horiz-adv-x="2046" d="M100 1063h394v-372h349v372h394v-387h487q119 0 183 -60q80 -76 80 -285q0 -39 -2 -67.5t-9 -67.5t-25 -73t-46 -61q-40 -39 -83.5 -50.5t-107.5 -11.5h-660q-106 0 -157 54q-8 8 -15.5 19t-17 30t-15.5 47t-6 61v195h-349v-406h-394v1063zM1237 416v-43q0 -49 21 -68 q20 -20 63 -20h160q59 0 78 14q27 17 27 50v4v5t-0.5 5t-0.5 5.5t-1 5t-2 5.5t-2.5 5.5t-3.5 5.5l-5 5t-6 5q-23 16 -84 16h-244z" />
<glyph unicode="&#x45b;" horiz-adv-x="1362" d="M128 0v1158h-148v177h148v70h393v-70h316v-177h-316v-95h236h19q57 0 89 -1t81.5 -7.5t90.5 -23.5t79 -45q71 -53 108.5 -131.5t37.5 -159.5v-695h-393v542q0 119 -61 182q-57 63 -162 63h-125v-787h-393z" />
<glyph unicode="&#x45c;" horiz-adv-x="1237" d="M454 0h-394v1063h394v-1063zM1298 0h-441l-311 427q-52 73 -52 119q0 48 64 140l261 377h433l-315 -404q-58 -75 -58 -111q0 -15 9 -34.5t15 -28t22 -29.5zM757 1680l174 -219l-385 -317l-175 217z" />
<glyph unicode="&#x45e;" horiz-adv-x="1368" d="M1369 1063l-636 -1406h-394l167 343l-506 1063h419l272 -651l284 651h394zM682 1331q51 0 83.5 11t63.5 45q34 37 48 86h259q-15 -73 -51 -142t-83 -111q-34 -31 -74.5 -51t-85 -29.5t-80.5 -12.5t-80 -3t-80 3t-80 12.5t-84.5 29.5t-73.5 51q-48 43 -84.5 112t-51.5 141 h260q14 -49 48 -86q31 -34 63 -45t83 -11z" />
<glyph unicode="&#x45f;" horiz-adv-x="1335" d="M471 -353v353h-212q-29 0 -44 1.5t-37 10t-40 26.5q-38 38 -38 102v923h394v-720q0 -44 12 -58q11 -12 48 -12h229q36 0 48 12q12 14 12 58v720h394v-923q0 -64 -38 -102q-18 -18 -40 -26.5t-37 -10t-44 -1.5h-213v-353h-394z" />
<glyph unicode="&#x490;" horiz-adv-x="1375" d="M140 0v1160q0 116 69 185q37 36 79 48t99 12h484q61 0 77 20q15 21 15 78v153h454v-413q0 -71 -28 -113q-49 -75 -161 -75h-577q-36 0 -47 -15q-10 -13 -10 -71v-969h-454z" />
<glyph unicode="&#x491;" horiz-adv-x="1095" d="M100 0v895q0 42 7.5 71.5t32.5 54.5q42 42 117 42h425q8 0 19 2.5t22 6.5t18 10q3 3 5.5 6t4 7t2.5 7t1 8t0.5 6.5t0.5 7.5v6v195h381v-358q0 -88 -40 -128q-19 -19 -48 -28.5t-46.5 -10.5t-45.5 -1h-394q-52 0 -60 -8t-8 -58v-733h-394z" />
<glyph unicode="&#x2000;" horiz-adv-x="1010" />
<glyph unicode="&#x2001;" horiz-adv-x="2021" />
<glyph unicode="&#x2002;" horiz-adv-x="1010" />
<glyph unicode="&#x2003;" horiz-adv-x="2021" />
<glyph unicode="&#x2004;" horiz-adv-x="673" />
<glyph unicode="&#x2005;" horiz-adv-x="505" />
<glyph unicode="&#x2006;" horiz-adv-x="336" />
<glyph unicode="&#x2007;" horiz-adv-x="336" />
<glyph unicode="&#x2008;" horiz-adv-x="252" />
<glyph unicode="&#x2009;" horiz-adv-x="404" />
<glyph unicode="&#x200a;" horiz-adv-x="112" />
<glyph unicode="&#x2010;" d="M60 379v318h857v-318h-857z" />
<glyph unicode="&#x2011;" d="M60 379v318h857v-318h-857z" />
<glyph unicode="&#x2012;" d="M60 379v318h857v-318h-857z" />
<glyph unicode="&#x2013;" horiz-adv-x="1107" d="M60 379v318h988v-318h-988z" />
<glyph unicode="&#x2014;" horiz-adv-x="2060" d="M100 379v318h1861v-318h-1861z" />
<glyph unicode="&#x2018;" horiz-adv-x="699" d="M362 1567l339 -493l-293 -174l-308 513z" />
<glyph unicode="&#x2019;" horiz-adv-x="699" d="M261 900l339 493l-293 174l-307 -513z" />
<glyph unicode="&#x201a;" horiz-adv-x="699" d="M261 -297l-261 155l307 513l293 -174z" />
<glyph unicode="&#x201c;" horiz-adv-x="1239" d="M100 1409l262 154l339 -493l-293 -175zM640 1409l262 154l339 -493l-293 -175z" />
<glyph unicode="&#x201d;" horiz-adv-x="1239" d="M0 1050l307 513l293 -174l-339 -494zM540 1050l307 513l293 -174l-339 -494z" />
<glyph unicode="&#x201e;" horiz-adv-x="1239" d="M0 -142l307 513l293 -174l-339 -494zM540 -142l307 513l293 -174l-339 -494z" />
<glyph unicode="&#x2022;" horiz-adv-x="882" d="M100 702.5q0 91.5 46.5 170.5t125 125t170.5 46q69 0 132 -27.5t108.5 -73.5t73 -109t27.5 -131.5t-27.5 -131.5t-73 -109t-108.5 -73t-132 -27q-92 0 -170.5 46t-125 124.5t-46.5 170z" />
<glyph unicode="&#x2026;" horiz-adv-x="1793" d="M498 0h-398v362h398v-362zM1096 0h-397v362h397v-362zM1694 0h-397v362h397v-362z" />
<glyph unicode="&#x202f;" horiz-adv-x="404" />
<glyph unicode="&#x2039;" horiz-adv-x="791" d="M693 907l-195 -279q-23 -34 -23 -64t23 -64l195 -280l-249 -192l-291 380q-53 67 -53 156t53 156l291 380z" />
<glyph unicode="&#x203a;" horiz-adv-x="791" d="M100 907l249 193l291 -380q53 -67 53 -156t-53 -156l-291 -380l-249 192l195 280q23 34 23 64t-23 64z" />
<glyph unicode="&#x205f;" horiz-adv-x="505" />
<glyph unicode="&#x20ac;" horiz-adv-x="1372" d="M1268 1092h-64q-15 75 -49.5 122t-85 67.5t-121.5 20.5q-142 0 -213.5 -110.5t-90.5 -330.5h486l-58 -120h-434v-61v-58h377l-58 -120h-313q13 -195 92 -297.5t212 -102.5q216 0 256 203h64l-18 -223q-58 -47 -147.5 -71.5t-249.5 -24.5q-151 0 -265 34t-191 101 t-122.5 161t-65.5 220h-167l58 120h89q-5 25 -5 64q0 37 2 55h-144l58 120h97q20 135 66 236t124 174.5t195 111.5t271 38q162 0 254 -26.5t143 -71.5z" />
<glyph unicode="&#x2122;" horiz-adv-x="2143" d="M521 594h-198v618h-323v195h843v-195h-322v-618zM1806 1112l-194 -432q-1 -3 -4 -10q-8 -18 -12.5 -26.5t-15.5 -22t-24 -19.5t-34.5 -11t-50.5 -5q-24 0 -34 0.5t-27.5 5t-27.5 14t-23.5 28t-25.5 46.5l-193 432l-3.5 6.5t-8.5 12t-10 5.5q-16 0 -16 -22v-520h-198v701 q0 27 6.5 47t24 38t53.5 27.5t90 9.5q125 0 165 -88l208 -468q14 -26 20 -26q7 0 21 26l208 468q8 18 20.5 32t25 23t28.5 15.5t29 10t27.5 5t21.5 2t15 0.5q23 0 41.5 -1.5t39.5 -6t37.5 -13t30 -21.5t20.5 -33.5t7 -46.5v-701h-199v520q0 22 -15 22q-6 0 -11 -5.5 t-8.5 -12z" />
<glyph unicode="&#x25fc;" horiz-adv-x="1063" d="M0 1063h1063v-1063h-1063v1063z" />
</font>
</defs>
</svg>
